<?xml version="1.0" standalone="no"?>
<!-- Generator: Adobe Fireworks 10, Export SVG Extension by Aaron Beall (http://fireworks.abeall.com) . Version: 0.6.1  -->
<!DOCTYPE svg PUBLIC "-//W3C//DTD SVG 1.1//EN" "http://www.w3.org/Graphics/SVG/1.1/DTD/svg11.dtd">
<svg id="Untitled-Page%201" viewBox="0 0 170 113" style="background-color:#ffffff00" version="1.1"
	xmlns="http://www.w3.org/2000/svg" xmlns:xlink="http://www.w3.org/1999/xlink" xml:space="preserve"
	x="0px" y="0px" width="170px" height="113px"
>
	<g id="Layer%201">
		<g>
			<rect x="17" y="1" width="136" height="99" fill="#f3f7fb" rx="4" ry="4"/>
			<path d="M 22 1 C 19.2385 1 17 3.2385 17 6 L 17 86 L 153 86 L 153 6 C 153 3.2385 150.7615 1 148 1 L 22 1 Z" fill="#ffffff"/>
			<rect x="17" y="1" width="136" height="99" stroke="#3167a9" stroke-width="2" fill="none" rx="4" ry="4"/>
			<path d="M 17 86 L 152 86 " stroke="#3167a9" stroke-width="2" fill="none"/>
			<path d="M 68 100 C 68 100 66.9957 107.2174 62 112 L 108 112 C 103.0043 107.2174 102 100 102 100 L 68 100 Z" stroke="#3268a9" stroke-width="2" fill="#f3f7fb"/>
			<path d="M 1 112 L 169 112 " stroke="#3167a9" stroke-width="2" fill="none"/>
			<path d="M 31 12 L 64 12 L 64 31 L 31 31 L 31 12 Z" stroke="#adc3db" stroke-width="2" fill="none"/>
			<path d="M 106 12 L 139 12 L 139 31 L 106 31 L 106 12 Z" stroke="#adc3db" stroke-width="2" fill="none"/>
			<g>
				<path d="M 85.9286 17 L 91.5 22 M 85.9286 27 L 91.5 22 " stroke="#346ba6" stroke-width="2" fill="none"/>
				<path d="M 90.5714 22 L 79.5 22 " stroke="#346ba6" stroke-width="2" fill="none"/>
			</g>
			<g>
				<path d="M 127 44.9286 L 122 50.5 M 117 44.9286 L 122 50.5 " stroke="#346ba6" stroke-width="2" fill="none"/>
				<path d="M 122 49.5714 L 122 38.5 " stroke="#346ba6" stroke-width="2" fill="none"/>
			</g>
			<path d="M 31 57 L 64 57 L 64 76 L 31 76 L 31 57 Z" stroke="#adc3db" stroke-width="2" fill="none"/>
			<path d="M 106 57 L 139 57 L 139 76 L 106 76 L 106 57 Z" stroke="#adc3db" stroke-width="2" fill="none"/>
			<g>
				<path d="M 84.0714 62 L 78.5 67 M 84.0714 72 L 78.5 67 " stroke="#346ba6" stroke-width="2" fill="none"/>
				<path d="M 79.4286 67 L 90.5 67 " stroke="#346ba6" stroke-width="2" fill="none"/>
			</g>
			<path id="Line" d="M 44.5 16.5 L 59.5 16.5 " stroke="#adc3db" stroke-width="2" fill="none"/>
			<path id="Line2" d="M 36.5 16.5 L 40.5 16.5 " stroke="#adc3db" stroke-width="2" fill="none"/>
			<path id="Line3" d="M 36.5 21.5 L 40.5 21.5 " stroke="#adc3db" stroke-width="2" fill="none"/>
			<path id="Line4" d="M 44.5 21.5 L 59.5 21.5 " stroke="#adc3db" stroke-width="2" fill="none"/>
			<path id="Line5" d="M 44.5 26.5 L 53.5 26.5 " stroke="#adc3db" stroke-width="2" fill="none"/>
			<path id="Line6" d="M 119.5 16.5 L 134.5 16.5 " stroke="#adc3db" stroke-width="2" fill="none"/>
			<path id="Line7" d="M 111.5 16.5 L 115.5 16.5 " stroke="#adc3db" stroke-width="2" fill="none"/>
			<path id="Line8" d="M 111.5 21.5 L 115.5 21.5 " stroke="#adc3db" stroke-width="2" fill="none"/>
			<path id="Line9" d="M 119.5 21.5 L 134.5 21.5 " stroke="#adc3db" stroke-width="2" fill="none"/>
			<path id="Line10" d="M 119.5 26.5 L 128.5 26.5 " stroke="#adc3db" stroke-width="2" fill="none"/>
			<path id="Line11" d="M 44.5 61.5 L 59.5 61.5 " stroke="#adc3db" stroke-width="2" fill="none"/>
			<path id="Line12" d="M 36.5 61.5 L 40.5 61.5 " stroke="#adc3db" stroke-width="2" fill="none"/>
			<path id="Line13" d="M 36.5 66.5 L 40.5 66.5 " stroke="#adc3db" stroke-width="2" fill="none"/>
			<path id="Line14" d="M 44.5 66.5 L 59.5 66.5 " stroke="#adc3db" stroke-width="2" fill="none"/>
			<path id="Line15" d="M 44.5 71.5 L 53.5 71.5 " stroke="#adc3db" stroke-width="2" fill="none"/>
			<path id="Line16" d="M 119.5 61.5 L 134.5 61.5 " stroke="#adc3db" stroke-width="2" fill="none"/>
			<path id="Line17" d="M 111.5 61.5 L 115.5 61.5 " stroke="#adc3db" stroke-width="2" fill="none"/>
			<path id="Line18" d="M 111.5 66.5 L 115.5 66.5 " stroke="#adc3db" stroke-width="2" fill="none"/>
			<path id="Line19" d="M 119.5 66.5 L 134.5 66.5 " stroke="#adc3db" stroke-width="2" fill="none"/>
			<path id="Line20" d="M 119.5 71.5 L 128.5 71.5 " stroke="#adc3db" stroke-width="2" fill="none"/>
		</g>
	</g>
</svg>