<?xml version="1.0" standalone="no"?>
<!-- Generator: Adobe Fireworks 10, Export SVG Extension by Aaron Beall (http://fireworks.abeall.com) . Version: 0.6.1  -->
<!DOCTYPE svg PUBLIC "-//W3C//DTD SVG 1.1//EN" "http://www.w3.org/Graphics/SVG/1.1/DTD/svg11.dtd">
<svg id="growthplan_r.fw-Page%201" viewBox="0 0 370 274" style="background-color:#ffffff00" version="1.1"
	xmlns="http://www.w3.org/2000/svg" xmlns:xlink="http://www.w3.org/1999/xlink" xml:space="preserve"
	x="0px" y="0px" width="370px" height="274px"
>
	<g id="Layer%201">
		<g>
			<path d="M -56 25 L 369 25 L 369 54 L -56 54 L -56 25 Z" fill="#f3f7fb"/>
			<path d="M -52 24 C -54.7615 24 -57 26.2385 -57 29 L -57 309 L 369 309 L 369 29 C 369 26.2385 366.7615 24 364 24 L -52 24 Z" stroke="#366da7" stroke-width="2" fill="none"/>
		</g>
		<rect x="-2" y="56" width="370" height="220" fill="#ffffff"/>
		<path d="M 115.7603 282.1986 C 118.3015 275.9587 119.032 270.2996 123.5715 265.5283 C 127.575 261.3158 131.2881 257.068 134.8539 253.3737 C 136.2599 251.9176 140.7432 247.8634 146.4216 245.8884 C 149.7568 244.7277 154.5088 244.2577 157.2336 243.6309 C 159.9548 243.0056 164.932 240.5223 170.7795 238.7335 C 176.6125 236.9424 181.7389 233.6783 184.5945 232.601 C 187.4335 231.5178 188.3438 230.0035 190.5273 229.2322 C 192.7017 228.4567 194.0768 225.8732 199.9042 224.3207 C 201.1921 223.3986 202.1514 221.9886 203.0288 221.6453 C 203.7389 221.3542 205.6263 221.5848 205.9407 221.8682 C 207.1721 221.0851 208.818 219.1639 209.599 216.8127 C 209.8625 214.1414 210.0714 211.4141 210.2949 208.8053 C 210.6453 204.7374 211.0487 200.9371 211.8444 198.0028 C 210.4255 196.1238 208.8671 193.071 207.7206 189.3682 C 206.5526 185.5616 205.8297 181.0861 205.71 178.793 C 202.7073 179.0408 200.6888 178.2415 199.3212 176.8535 C 197.975 175.468 197.5537 173.4138 197.2195 171.3328 C 196.6509 167.6544 195.906 166.2756 196.9833 161.6942 C 196.7599 158.62 197.2811 156.3015 197.6062 154.464 C 198.0806 151.9603 199.9497 148.6271 201.1212 149.0145 C 200.1259 148.0247 199.7297 147.1915 200.0424 145.4967 C 200.2566 144.3082 200.3002 142.736 200.3002 141.3567 C 200.3002 139.8547 200.351 139.6887 199.6844 138.4508 C 199.1359 137.3553 199.0614 136.7336 199.0614 135.3787 C 199.0614 132.6604 199.3992 129.0178 199.9913 127.4473 C 198.8688 128.1093 198.8016 130.0896 197.1541 130.3512 C 198.5126 129.2761 198.1586 126.0164 199.5863 124.8234 C 200.3002 124.2517 201.234 122.0613 202.1421 120.8243 C 203.0231 119.536 203.6643 118.7264 204.8815 117.8698 C 203.7389 117.9167 202.5927 118.1332 201.5646 118.9869 C 200.3257 120.0623 199.4935 121.0643 198.3984 123.5374 C 198.8688 119.8938 200.2312 118.1046 201.1394 117.0125 C 200.2312 117.3695 199.0614 118.5363 197.7297 120.2502 C 198.9705 118.012 200.0679 117.1561 201.0922 115.5812 C 202.0676 114.0597 202.8524 113.5369 204.4764 112.6306 C 205.8334 111.9163 206.6689 111.6317 208.0732 110.9609 C 208.9125 110.5809 210.5093 110.678 211.1504 110.2958 C 211.8625 109.8639 211.3885 108.5338 212.5782 108.6024 C 212.173 105.6263 206.1675 110.0332 205.2848 111.0115 C 207.0016 108.0098 208.0732 107.0077 210.6472 106.3411 C 209.8842 105.7656 208.9397 105.5302 208.0024 105.5079 C 206.9052 105.5079 206.0988 105.4885 205.1687 106.1749 C 205.4502 104.6703 208.6436 104.3885 210.006 104.2443 C 209.6517 103.9587 209.699 103.127 208.1239 102.9596 C 210.2913 102.006 211.9587 104.1515 213.9095 104.2672 C 213.8898 103.9587 213.8678 103.151 213.8424 102.861 C 214.3348 103.4591 215.094 103.7854 215.8462 103.941 C 216.0696 103.6715 216.2876 103.3942 216.5237 103.1375 C 215.8188 102.5101 215.1558 101.9315 214.1259 101.6693 C 213.4612 101.5049 212.3186 101.5995 211.3885 101.4319 C 211.7917 101.0999 212.411 101.1742 212.9796 101.1742 C 212.7035 100.574 212.3693 99.6957 212.0297 99.4335 C 213.3175 100.052 213.8225 100.1964 214.6746 100.6261 C 215.5374 101.0072 216.0114 101.4117 217.183 101.8348 C 216.562 100.9561 216.4712 100.5309 215.9623 99.8619 C 216.6528 100.2223 217.4139 100.504 218.2532 100.4797 C 218.2039 100.2648 218.3257 99.954 218.3038 99.7175 C 218.8271 99.7175 219.4448 99.8619 219.8988 100.1964 C 219.4448 99.1268 219.0159 98.1462 217.7554 97.5759 C 218.442 97.3342 219.1577 97.4296 219.8988 97.387 C 218.7072 96.5505 218.015 96.4318 216.562 96.5724 C 217.699 95.9297 219.1813 95.4792 220.8472 95.3398 C 222.7562 95.214 223.6864 96.0995 225.0232 97.2434 C 224.1425 96.028 223.8989 95.3398 222.4728 94.7196 C 221.5664 94.3365 220.3529 93.9309 219.3721 93.7668 C 219.9952 93.3849 220.6382 93.4803 221.3575 93.4313 C 220.6145 92.9542 220.1858 92.7637 219.2577 92.3826 C 220.6836 92.4037 222.2076 92.337 223.5465 92.6683 C 224.671 92.9099 227.8861 94.9078 226.9562 92.1447 C 227.7446 92.2627 228.531 92.7869 228.7145 93.572 C 229.5774 93.528 229.2687 92.3826 229.0979 91.7635 C 230.2932 91.8611 231.1285 91.5485 232.1461 92.1447 C 232.9635 92.5741 233.8188 93.4803 234.8691 93.335 C 235.1034 92.7869 234.9362 92.2877 234.8199 91.74 C 236.0588 92.4369 236.8872 93.379 238.088 94.4872 C 238.1096 94.4836 238.1332 94.4812 238.1586 94.4791 C 237.5648 93.2511 236.6965 92.3094 235.7029 91.3816 C 234.7001 90.5006 233.8918 90.0491 232.8165 89.3326 C 234.7001 89.4755 235.3921 89.8809 236.9652 90.7629 C 236.9417 90.0028 236.7762 89.4297 236.1315 88.4286 C 238.0406 88.8566 239.1359 91.5231 240.2042 92.8113 C 241.9008 91.5765 240.7073 89.4558 239.4449 88.0957 C 240.6603 88.4286 242.046 90.0028 243.1378 89.9525 C 243.3557 89.4297 243.4248 88.8566 243.187 88.334 C 243.6647 88.5476 244.0679 88.9991 244.235 89.5277 C 244.235 88.4777 244.4712 86.7365 245.1669 86 C 245.2542 87.2406 245.7174 88.8566 246.4257 89.6671 C 247.4775 90.8817 247.3358 88.7609 247.3358 87.7155 C 248.5001 88.8114 249.2415 90.4797 249.7683 91.4304 C 250.2423 89.2383 249.8665 87.6198 249.1506 86.2844 C 249.8665 86.951 251.0525 87.4998 251.4359 88.334 C 251.8608 89.2882 252.1024 89.4297 252.9146 91.3108 C 253.1233 90.1453 253.6538 88.8114 253.6283 87.0023 C 254.1517 88.4286 254.9399 90.8097 255.9174 91.8611 C 256.0117 90.2402 256.175 89.4297 255.9446 87.955 C 256.5311 89.5277 257.3486 90.6659 257.7992 92.3094 C 257.7482 91.9578 257.9899 91.2162 258.1589 90.5006 C 258.2461 91.6682 258.108 92.5741 258.7091 93.1472 C 259.3214 92.2877 259.5177 91.0969 259.6611 90.0964 C 260.0608 91.9578 261.2306 95.8849 262.1407 95.8141 C 263.9301 95.5759 262.5948 91.7635 261.9935 90.5497 C 262.8329 91.2858 263.1179 91.6682 263.4976 93.002 C 263.5957 92.024 263.9301 91.3816 264.4276 91.0969 C 264.3043 93.0237 264.9545 94.5256 265.1434 96.028 C 265.1179 96.0505 265.8301 96.1949 266.0952 97.2434 C 266.7184 96.9543 267.474 95.8141 267.9282 95.0986 C 268.4568 94.2177 268.7167 93.572 269.4304 91.9043 C 269.0981 93.4803 268.0516 99.0535 269.6958 98.8617 C 270.0027 97.908 270.4296 97.0057 271.0543 95.8141 C 270.8873 97.0996 270.9818 97.8137 270.6259 99.1472 C 271.1488 98.8617 272.2714 98.1243 272.6003 97.5262 C 272.9618 96.8606 272.7893 96.4318 273.2469 95.5282 C 273.4159 96.0028 273.129 97.0996 273.1506 97.6246 C 273.6974 97.2656 274.3207 97.0996 274.9872 96.8606 C 273.7758 97.8137 272.2225 100.5309 274.2242 99.8619 C 274.3896 99.8137 275.3688 98.4806 275.5594 98.2424 C 276.012 97.7672 276.3931 97.2656 277.0127 96.4562 C 276.4641 97.6246 276.7493 97.6246 276.2262 98.7209 C 276.7493 98.2424 277.347 97.72 277.5342 97.5262 C 277.1072 99.4335 275.8701 100.1964 276.8691 101.2882 C 277.2036 100.4344 277.7719 99.7899 278.3768 99.0287 C 278.4641 99.5283 278.4459 99.954 278.3988 100.3389 C 279.1581 100.4797 279.3743 100.5309 280.4933 100.3615 C 279.1107 101.0521 277.4685 101.4823 277.9917 102.3859 C 278.7549 102.0536 279.3743 102.0536 280.5404 101.5995 C 281.4686 101.2451 282.3079 101.6693 283.2343 101.4823 C 282.3552 101.9584 281.9937 102.4343 281.3778 102.5787 C 281.14 102.9109 281.2563 103.3868 281.2308 103.719 C 282.5421 103.9587 282.9037 103.675 284.3079 102.9596 C 283.5449 103.7682 283.2598 104.3885 282.7329 105.4885 C 283.2125 105.3899 283.7611 104.9598 284.0702 104.4813 C 284.4259 105.2932 283.3833 105.817 283.783 106.1995 C 284.1427 106.5313 284.3788 106.8157 284.2098 107.535 C 285.2345 107.5781 286.0481 107.7219 287.6921 106.8879 C 287.0474 107.7219 284.9528 108.7721 283.9718 109.1497 C 284.9292 109.1497 285.5941 109.5319 287.5759 109.1973 C 287.3105 109.5107 286.951 109.8639 286.5948 110.2473 C 287.3832 110.4412 287.7648 110.6989 288.6714 111.0115 C 287.7648 111.4357 286.9747 111.2246 286.4332 111.2474 C 286.4552 111.7244 287.1454 112.2507 286.7821 112.9368 C 287.9574 113.1525 289.8392 114.7012 289.6486 116.0117 C 288.5095 115.0348 287.8848 115.0116 286.951 115.2 C 285.6194 115.4867 286.3822 115.9669 287.2198 116.3463 C 288.4496 116.9657 289.8392 117.7253 290.4604 120.3473 C 289.7428 119.536 289.4778 119.536 288.9113 119.2029 C 288.4496 118.917 287.623 118.7264 287.0763 118.8203 C 287.5033 119.2527 287.4307 119.9171 287.7865 120.8243 C 288.0483 121.4432 288.1227 121.5399 287.8629 122.5852 C 288.6968 122.7777 289.5759 123.2262 290.4604 124.2063 C 290.2662 124.1591 289.9102 123.9698 289.4052 123.9698 C 290.099 125.2053 291.0074 126.9213 290.5039 128.8287 C 290.317 127.6356 289.6958 127.016 288.7639 127.016 C 288.6968 127.8494 289.0981 128.9678 289.3107 129.7317 C 289.4778 130.4476 290.0519 131.3035 289.7428 132.0896 C 289.4778 131.1592 289.0273 131.3497 288.6714 131.2097 C 288.7203 131.9252 289.0037 133.4476 289.0547 134.2317 C 290.0681 139.2218 288.6313 146.3059 287.0107 152.1697 C 286.9237 152.8457 286.7821 153.4553 286.5059 153.9495 C 286.5059 153.9495 292.0627 158.1165 286.9545 169.8038 C 286.7112 172.2062 284.5986 180.5051 282.5787 181.7522 C 280.5604 183.4584 276.6604 181.5947 276.6604 181.5947 C 276.6604 181.5947 275.1107 191.8577 273.5504 194.3396 C 271.9938 196.8319 269.0381 201.4988 269.0381 201.4988 C 269.0381 201.4988 267.5668 212.6688 268.7238 218.1324 C 269.198 220.7805 271.1926 223.1364 271.6757 224.0443 C 272.3424 223.6873 274.0244 223.2062 275.3633 224.3207 C 276.2426 225.0508 279.7739 226.7277 280.7948 227.1969 C 283.9628 228.6702 290.1282 232.851 294.1172 234.3617 C 296.9965 235.4486 299.6995 237.1125 302.4916 238.1898 C 305.2799 239.2699 309.1744 240.9053 312.6968 241.7625 C 316.2211 242.6152 323.9341 244.7871 328.9476 246.7386 C 334.8531 249.0477 337.8176 250.4744 341.8616 253.7385 C 345.1875 256.4171 348.2338 260.8956 352.2811 266.8014 C 354.8606 270.5667 358.9905 284.4337 363 294 L 112 294 C 112.9227 290.5431 114.3287 285.697 115.7603 282.1986 Z" fill="#c4d4e3"/>
		<path d="M 15 138 L 113 138 " stroke="#b9cbe0" stroke-width="2" fill="none"/>
		<path d="M 15 148 L 103 148 " stroke="#b9cbe0" stroke-width="2" fill="none"/>
		<path d="M 15 168 L 109 168 " stroke="#b9cbe0" stroke-width="2" fill="none"/>
		<path d="M 15 178 L 63 178 " stroke="#b9cbe0" stroke-width="2" fill="none"/>
		<path d="M 15 198 L 103 198 " stroke="#b9cbe0" stroke-width="2" fill="none"/>
		<path d="M 15 208 L 81 208 " stroke="#b9cbe0" stroke-width="2" fill="none"/>
		<path d="M 347 77 L -13 77 L -13 279 L 347 279 L 347 77 Z" stroke="#adc3db" stroke-width="2" fill="none"/>
		<g>
			<path id="Ellipse" d="M 184.5 167 C 184.5 151.8119 172.188 139.5 157 139.5 C 141.812 139.5 129.5 151.8119 129.5 167 C 129.5 182.1881 141.812 194.5 157 194.5 C 172.188 194.5 184.5 182.1881 184.5 167 Z" stroke="#adc3db" stroke-width="2" fill="#ffffff"/>
			<path d="M 153.2 176.7858 L 163.2 167.2859 M 153.2 157.7858 L 163.2 167.2859 " stroke="#064685" stroke-width="2" fill="none"/>
		</g>
		<rect x="348" y="233" width="19" height="41" fill="#ffffff"/>
		<path d="M 368 55 L -61 55 " stroke="#376ea8" stroke-width="2" fill="none"/>
	</g>
</svg>