<?xml version="1.0" standalone="no"?>
<!-- Generator: Adobe Fireworks 10, Export SVG Extension by Aaron Beall (http://fireworks.abeall.com) . Version: 0.6.1  -->
<!DOCTYPE svg PUBLIC "-//W3C//DTD SVG 1.1//EN" "http://www.w3.org/Graphics/SVG/1.1/DTD/svg11.dtd">
<svg id="headers.fw-header_home_3000" viewBox="0 0 3000 479" style="background-color:#ffffff" version="1.1"
	xmlns="http://www.w3.org/2000/svg" xmlns:xlink="http://www.w3.org/1999/xlink" xml:space="preserve"
	x="0px" y="0px" width="3000px" height="479px"
>
	<defs>
		<linearGradient id="gradient1" x1="51.5091%" y1="135.5346%" x2="51.5091%" y2="1.2579%">
			<stop stop-color="#064f97" stop-opacity="1" offset="0%"/>
			<stop stop-color="#011447" stop-opacity="1" offset="100%"/>
		</linearGradient>
	</defs>
	<g id="Layer%201">
		<path d="M 0 0 L 3000 0 L 3000 480 L 0 480 L 0 0 Z" fill="url(#gradient1)"/>
		<g>
			<path d="M 1436 479 L 2185 479 L 2183.0645 475.0493 C 2102.6846 327.4745 2046.4214 286.8142 2010.0151 289.0892 C 1940.823 293.4205 1926.6318 439.5408 1832.7356 444.8901 C 1778.8799 447.9647 1751.1172 401.7437 1662.2816 398.1499 C 1615.225 396.249 1508.2854 417 1436 479 Z" stroke="#0078d3" stroke-width="1" fill="none"/>
			<g>
				<path d="M 2013 420.5507 C 2013 436.9854 2039.1514 474.6363 2040.6606 476.8348 L 2040.6606 476.8348 L 2040.7153 476.9449 L 2040.7153 476.9449 L 2040.7153 476.9449 L 2040.7153 476.9449 C 2040.7759 476.9449 2040.7759 477 2040.7759 477 L 2040.7759 477 C 2040.7759 477 2069 437.766 2069 420.375 L 2069 420.375 C 2069 387.3409 2040.7759 387 2040.7759 387 L 2040.7759 387 C 2040.7759 387 2013 387.3409 2013 420.5507 L 2013 420.5507 Z" stroke="#0078d3" stroke-width="1" fill="none"/>
				<path d="M 2029.7998 415.0872 C 2029.7998 408.8981 2034.7817 403.8306 2041 403.8306 L 2041 403.8306 C 2047.1577 403.8306 2052.1997 408.8981 2052.1997 415.0872 L 2052.1997 415.0872 C 2052.1997 421.3313 2047.1577 426.3442 2041 426.3442 L 2041 426.3442 C 2034.7817 426.3442 2029.7998 421.3313 2029.7998 415.0872 L 2029.7998 415.0872 Z" stroke="#0078d3" stroke-width="1" fill="none"/>
				<path d="M 1961 438.8583 C 1961 450.5451 1979.6797 477.3192 1980.7576 478.8826 L 1980.7576 478.8826 L 1980.7969 478.9608 L 1980.7969 478.9608 L 1980.7969 478.9608 L 1980.7969 478.9608 C 1980.8398 478.9608 1980.8398 479 1980.8398 479 L 1980.8398 479 C 1980.8398 479 2001 451.1002 2001 438.7333 L 2001 438.7333 C 2001 415.2424 1980.8398 415 1980.8398 415 L 1980.8398 415 C 1980.8398 415 1961 415.2424 1961 438.8583 L 1961 438.8583 Z" stroke="#0078d3" stroke-width="1" fill="none"/>
				<path d="M 1973 434.9731 C 1973 430.572 1976.5583 426.9684 1981 426.9684 L 1981 426.9684 C 1985.3984 426.9684 1989 430.572 1989 434.9731 L 1989 434.9731 C 1989 439.4133 1985.3984 442.9781 1981 442.9781 L 1981 442.9781 C 1976.5583 442.9781 1973 439.4133 1973 434.9731 L 1973 434.9731 Z" stroke="#0078d3" stroke-width="1" fill="none"/>
			</g>
			<g>
				<g>
					<path id="Line" d="M 1231.5 144.5 L 1392 305 " stroke="#0078d3" stroke-width="1" fill="none"/>
					<path id="Ellipse" d="M 835 396 C 835 389.9248 839.9248 385 846 385 C 852.0752 385 857 389.9248 857 396 C 857 402.0752 852.0752 407 846 407 C 839.9248 407 835 402.0752 835 396 Z" stroke="#0078d3" stroke-width="1" fill="none"/>
					<path id="Ellipse2" d="M 960 270 C 960 263.9248 964.9248 259 971 259 C 977.0752 259 982 263.9248 982 270 C 982 276.0752 977.0752 281 971 281 C 964.9248 281 960 276.0752 960 270 Z" stroke="#0078d3" stroke-width="1" fill="none"/>
					<path id="Ellipse3" d="M 1019 329 C 1019 322.9248 1023.9248 318 1030 318 C 1036.0752 318 1041 322.9248 1041 329 C 1041 335.0752 1036.0752 340 1030 340 C 1023.9248 340 1019 335.0752 1019 329 Z" stroke="#0078d3" stroke-width="1" fill="none"/>
					<path id="Ellipse4" d="M 1212 136 C 1212 129.9248 1216.9248 125 1223 125 C 1229.0752 125 1234 129.9248 1234 136 C 1234 142.0752 1229.0752 147 1223 147 C 1216.9248 147 1212 142.0752 1212 136 Z" stroke="#0078d3" stroke-width="1" fill="none"/>
					<path id="Line2" d="M 854 387 L 962.5 278.5 " stroke="#0078d3" stroke-width="1" fill="none"/>
					<path id="Line3" d="M 979.5 278.5 L 1022.5 321.5 " stroke="#0078d3" stroke-width="1" fill="none"/>
					<path id="Line4" d="M 781 331 L 838.5 388.5 " stroke="#0078d3" stroke-width="1" fill="none"/>
					<path id="Line5" d="M 1037.5 320.5 L 1215 143 " stroke="#0078d3" stroke-width="1" fill="none"/>
				</g>
				<path id="Ellipse5" d="M 1390 313 C 1390 306.9248 1394.9248 302 1401 302 C 1407.0752 302 1412 306.9248 1412 313 C 1412 319.0752 1407.0752 324 1401 324 C 1394.9248 324 1390 319.0752 1390 313 Z" stroke="#0078d3" stroke-width="1" fill="none"/>
				<path id="Ellipse6" d="M 1718 151 C 1718 144.9248 1722.9248 140 1729 140 C 1735.0752 140 1740 144.9248 1740 151 C 1740 157.0752 1735.0752 162 1729 162 C 1722.9248 162 1718 157.0752 1718 151 Z" stroke="#0078d3" stroke-width="1" fill="none"/>
				<path id="Line6" d="M 1408.5 304.5 L 1638 75 " stroke="#0078d3" stroke-width="1" fill="none"/>
				<path id="Line7" d="M 1654.5 76.5 L 1721 143 " stroke="#0078d3" stroke-width="1" fill="none"/>
				<path id="Line8" d="M 1736 143 L 1880 -1 " stroke="#0078d3" stroke-width="1" fill="none"/>
				<path id="Line9" d="M 1912.5 1.5 L 2397 486 " stroke="#0078d3" stroke-width="1" fill="none"/>
			</g>
			<path id="Ellipse7" d="M 1635 68 C 1635 61.9248 1639.9248 57 1646 57 C 1652.0752 57 1657 61.9248 1657 68 C 1657 74.0752 1652.0752 79 1646 79 C 1639.9248 79 1635 74.0752 1635 68 Z" stroke="#0078d3" stroke-width="1" fill="none"/>
		</g>
		<path id="Ellipse8" d="M 763 323 C 763 316.9248 767.9248 312 774 312 C 780.0752 312 785 316.9248 785 323 C 785 329.0752 780.0752 334 774 334 C 767.9248 334 763 329.0752 763 323 Z" stroke="#0078d3" stroke-width="1" fill="none"/>
		<path id="Line10" d="M 591 504 L 765.5 330.5 " stroke="#0078d3" stroke-width="1" fill="none"/>
		<rect x="1094.5" y="360" width="36" height="161" stroke="#0078d3" stroke-width="1" fill="none" rx="3" ry="3"/>
		<rect x="1139.5" y="410" width="36" height="161" stroke="#0078d3" stroke-width="1" fill="none" rx="3" ry="3"/>
		<rect x="1049.5" y="377" width="36" height="161" stroke="#0078d3" stroke-width="1" fill="none" rx="3" ry="3"/>
		<rect x="1004.5" y="450" width="36" height="161" stroke="#0078d3" stroke-width="1" fill="none" rx="3" ry="3"/>
	</g>
</svg>