<?xml version="1.0" standalone="no"?>
<!-- Generator: Adobe Fireworks 10, Export SVG Extension by Aaron Beall (http://fireworks.abeall.com) . Version: 0.6.1  -->
<!DOCTYPE svg PUBLIC "-//W3C//DTD SVG 1.1//EN" "http://www.w3.org/Graphics/SVG/1.1/DTD/svg11.dtd">
<svg id="Untitled-Page%201" viewBox="0 0 70 85" style="background-color:#ffffff00" version="1.1"
	xmlns="http://www.w3.org/2000/svg" xmlns:xlink="http://www.w3.org/1999/xlink" xml:space="preserve"
	x="0px" y="0px" width="70px" height="85px"
>
	<g id="Layer%201">
		<g>
			<path d="M 19.0048 50.769 C 14.1412 52.4863 13.3566 54.3574 13.6699 57.1665 C 13.984 59.9746 17.2794 61.2227 20.574 60.9104 L 20.574 60.9104 " fill="#ffffff"/>
			<path d="M 19.0048 50.769 C 14.1412 52.4863 13.3566 54.3574 13.6699 57.1665 C 13.984 59.9746 17.2794 61.2227 20.574 60.9104 L 20.574 60.9104 " stroke="#231f20" stroke-width="2" fill="none"/>
			<path d="M 12.4148 27.5234 C 22.4573 22.999 35.0104 21.9067 43.6406 28.6157 C 52.271 35.324 55.2521 52.0171 55.2521 56.0742 C 55.2521 57.0098 48.3483 57.7896 46.3086 59.3501 C 43.7977 61.5349 50.7018 69.8032 50.7018 73.7036 C 50.7018 73.7036 51.4865 79.1643 46.3086 80.4121 C 40.5023 81.6597 36.4226 77.1362 31.7151 80.4121 C 30.9304 81.0366 28.5767 82.5967 25.9095 84 L 12.4148 27.5234 L 12.4148 27.5234 Z" fill="#ffffff"/>
			<path d="M 12.4148 27.5234 C 22.4573 22.999 35.0104 21.9067 43.6406 28.6157 C 52.271 35.324 55.2521 52.0171 55.2521 56.0742 C 55.2521 57.0098 48.3483 57.7896 46.3086 59.3501 C 43.7977 61.5349 50.7018 69.8032 50.7018 73.7036 C 50.7018 73.7036 51.4865 79.1643 46.3086 80.4121 C 40.5023 81.6597 36.4226 77.1362 31.7151 80.4121 C 30.9304 81.0366 28.5767 82.5967 25.9095 84 L 12.4148 27.5234 Z" stroke="#231f20" stroke-width="2" fill="none"/>
			<path d="M 30.4601 16.1345 C 30.9304 17.3823 30.6172 18.4749 29.8325 19.2549 C 29.3613 19.5664 28.5767 19.5664 28.2634 20.1909 C 28.1062 20.9712 28.5767 21.439 29.3613 21.7515 C 31.0875 22.375 32.6566 21.2827 33.2841 20.1909 C 35.4807 16.446 31.2448 13.0144 30.7734 9.27 C 30.4601 6.7737 32.6566 4.2773 32.6566 1.9373 C 32.6566 1.1572 30.1459 1.001 29.3613 2.4048 C 28.1062 5.0574 26.066 8.0215 27.4788 10.5178 C 28.4197 12.2341 29.6755 13.9507 30.4601 16.1345 L 30.4601 16.1345 Z" fill="#f48120"/>
			<path d="M 38.1486 16.1345 C 38.4628 17.5386 38.1486 18.6309 37.6782 19.8787 C 37.05 21.5952 39.0903 22.219 40.032 21.2827 C 43.9548 17.0708 42.0715 14.7305 40.5023 12.5459 C 38.9332 10.2056 38.6193 9.7378 37.8346 8.0215 C 37.5211 7.3975 36.4226 5.6812 38.3057 3.8096 C 39.0903 3.1848 38.9332 1.313 38.1486 0.5332 C 35.4807 -1.3394 34.6963 2.0933 33.7554 5.0574 C 32.4996 8.9578 37.05 12.0779 38.1486 16.1345 L 38.1486 16.1345 Z" fill="#f48120"/>
			<path d="M 11.7874 19.5664 C 12.7283 20.6587 12.7283 21.7515 12.2578 22.6865 C 11.9437 23.1553 11.3162 24.2471 11.1592 24.8716 C 11.3162 25.6516 11.7874 25.0269 12.572 25.0269 C 14.2974 25.1831 15.5531 23.623 15.8666 22.219 C 16.651 18.0063 11.6302 15.9785 10.061 12.5459 C 8.9625 10.3618 10.3746 7.3975 9.59 5.2136 C 9.2766 4.4336 6.923 5.2136 6.6089 6.7737 C 6.1383 9.7378 5.1968 13.0144 7.3933 15.0422 C 8.649 16.6023 10.3746 17.8511 11.7874 19.5664 L 11.7874 19.5664 Z" fill="#f48120"/>
			<path d="M 19.0048 15.1982 C 19.4761 16.446 19.1619 17.6946 18.8485 18.9424 C 18.3772 20.6587 20.8882 20.6587 21.8297 19.5664 C 23.8693 16.9146 22.6143 13.6382 21.3585 11.2979 C 19.9464 8.8018 17.9069 6.6177 17.7498 3.9651 C 17.7498 3.1848 19.3191 3.1848 20.1036 2.8735 C 21.045 2.561 22.9276 1.6248 21.9868 1.001 C 19.0048 -0.7153 14.7687 1.313 13.984 4.4336 C 13.0424 8.334 17.7498 11.2979 19.0048 15.1982 L 19.0048 15.1982 Z" fill="#f48120"/>
			<path d="M 33.5984 62.0024 C 37.9917 68.2432 40.5023 71.988 49.4468 73.2358 L 49.4468 73.2358 " stroke="#231f20" stroke-width="2" fill="none"/>
			<path d="M 15.3961 29.8635 C 16.0237 29.3958 17.7498 23.9353 17.7498 23.623 C 17.5927 23.1553 20.1036 28.927 20.2606 29.2397 C 20.4176 29.3958 25.2815 29.7075 25.5956 30.1758 C 25.9095 30.6436 22.6143 31.5798 22.1429 32.2036 C 21.6729 32.6724 27.0077 38.9128 26.6942 39.3806 C 26.3801 39.8481 19.6332 35.168 19.3191 35.4802 C 18.8485 35.7925 14.1412 40.6284 13.984 40.6284 C 13.8269 40.6284 15.3961 34.3877 15.0819 33.9204 C 14.9258 33.4524 11.4731 34.2324 11.1592 33.6077 C 11.0027 32.9839 15.3961 29.8635 15.3961 29.8635 L 15.3961 29.8635 Z" fill="#ffd420"/>
			<path d="M 17.2794 35.9478 C 16.3376 36.728 15.8666 37.8203 14.9258 38.7566 C 14.7687 38.9128 14.7687 38.6003 14.7687 38.4441 C 15.0819 37.1965 15.2391 36.104 15.3961 34.8564 C 15.5531 34.3877 15.7103 34.0762 15.8666 33.6077 C 16.0237 33.2961 16.0237 32.9839 15.8666 32.6724 C 15.5531 32.3599 15.0819 32.6724 14.7687 32.8276 C 13.8269 33.2961 12.8854 33.2961 11.9437 32.9839 C 12.2578 32.5159 12.7283 32.3599 13.1995 32.0474 C 13.6699 31.7361 14.2974 31.5798 14.7687 31.1123 C 15.0819 30.9561 15.3961 30.9561 15.3961 30.7996 C 15.7103 30.4873 16.0237 30.1758 16.3376 29.7075 C 17.2794 28.3032 17.2794 26.4316 17.9069 24.8716 C 18.6914 26.4316 19.0048 28.3032 19.7893 30.1758 C 19.7893 30.4873 20.2606 30.0195 20.4176 30.4873 C 21.045 30.0195 21.8297 30.1758 22.4573 30.1758 C 22.7714 30.1758 23.3988 30.0195 23.7123 30.4873 C 22.9276 30.9561 22.1429 31.4236 21.2021 31.7361 C 20.8882 31.8921 20.574 32.5159 20.8882 32.9839 C 21.045 33.2961 21.3585 33.4524 21.5157 33.6077 C 22.7714 34.7002 23.7123 36.104 24.6539 37.5078 C 24.3405 37.8203 24.0265 37.5078 23.8693 37.1965 C 22.4573 36.104 21.045 35.6362 19.6332 34.3877 C 19.0048 33.6077 18.2202 35.324 17.2794 35.9478 L 17.2794 35.9478 ZM 17.2794 37.8203 C 17.7498 37.1965 18.3772 36.26 19.0048 36.4165 C 20.8882 36.5728 22.4573 38.1328 24.0265 39.2244 C 24.968 39.8481 25.7526 40.7844 26.8506 40.6284 C 27.1646 40.6284 27.1646 40.1606 27.4788 39.8481 C 27.6353 39.5366 27.3217 39.2244 27.3217 39.2244 C 26.3801 38.4441 26.223 37.1965 25.5956 36.4165 C 24.6539 35.168 23.8693 34.0762 22.9276 32.8276 C 24.0265 31.8921 25.2815 31.7361 26.5371 31.2676 C 26.8506 31.1123 27.0077 30.6436 26.8506 30.332 C 26.8506 30.0195 26.5371 29.8635 26.5371 29.8635 C 25.5956 29.7075 24.6539 29.5518 23.8693 29.2397 C 22.7714 29.0835 21.6729 29.3958 20.574 28.772 C 20.1036 28.6157 20.1036 27.8354 19.9464 27.3672 C 19.4761 25.4954 18.8485 23.623 18.064 22.0627 C 17.9069 21.7515 17.4355 21.5952 17.1223 21.9067 C 16.9652 21.5952 16.8081 22.0627 16.9652 22.6865 C 17.2794 24.5591 16.4948 26.4316 16.0237 28.1472 C 15.8666 28.4597 15.7103 28.6157 15.3961 28.772 C 15.3961 28.927 15.3961 29.0835 15.3961 29.0835 C 14.4545 29.8635 13.6699 30.332 12.572 30.9561 C 11.6302 31.4236 10.8457 32.3599 10.061 33.1396 C 9.59 33.2961 9.4336 34.3877 9.9042 34.3877 C 11.4731 34.8564 12.8854 34.7002 14.4545 34.5442 C 14.4545 36.4165 13.984 38.1328 13.3566 39.6929 C 13.1995 40.0044 13.0424 40.3169 12.8854 40.6284 C 12.572 41.2532 13.1995 41.877 13.5128 41.7207 C 15.0819 40.7844 16.1805 39.3806 17.2794 37.8203 Z" fill="#231f20"/>
			<path d="M 25.7526 45.1533 C 17.4355 45.4658 14.9258 48.1167 13.5128 49.8337 C 12.1007 51.5493 12.2578 55.1372 13.8269 55.4497 L 13.8269 55.4497 " stroke="#231f20" stroke-width="2" fill="none"/>
			<path d="M 34.0687 50.769 C 38.1486 50.769 41.6012 48.1167 41.6012 44.6848 C 41.6012 41.4082 38.3057 38.6003 34.0687 38.6003 C 29.8325 38.6003 26.5371 41.2532 26.5371 44.6848 C 26.5371 48.1167 29.8325 50.769 34.0687 50.769 L 34.0687 50.769 Z" fill="#bed63d"/>
			<path d="M 34.0687 38.6003 C 38.2284 38.6003 41.6012 41.3247 41.6012 44.6848 C 41.6012 48.0449 38.2284 50.769 34.0687 50.769 C 29.9092 50.769 26.5371 48.0449 26.5371 44.6848 C 26.5371 41.3247 29.9092 38.6003 34.0687 38.6003 Z" stroke="#231f20" stroke-width="2" fill="none"/>
			<path d="M 53.5261 49.366 C 58.2335 49.366 62 47.4937 62 44.9971 C 62 42.6567 58.2335 40.6284 53.5261 40.6284 C 48.8186 40.6284 45.0527 42.3447 45.0527 44.9971 C 45.0527 47.8059 48.8186 49.366 53.5261 49.366 L 53.5261 49.366 Z" fill="#bed63d"/>
			<path d="M 53.5261 49.366 C 58.2335 49.366 62 47.4937 62 44.9971 C 62 42.6567 58.2335 40.6284 53.5261 40.6284 C 48.8186 40.6284 45.0527 42.3447 45.0527 44.9971 C 45.0527 47.8059 48.8186 49.366 53.5261 49.366 Z" stroke="#231f20" stroke-width="2" fill="none"/>
			<path d="M 41.6012 44.6848 C 41.6012 44.6848 45.0527 43.5933 45.0527 44.9971 L 45.0527 44.9971 " fill="#bed63d"/>
			<path d="M 41.6012 44.6848 C 41.6012 44.6848 45.0527 43.5933 45.0527 44.9971 L 45.0527 44.9971 " stroke="#231f20" stroke-width="2" fill="none"/>
		</g>
	</g>
</svg>