<?xml version="1.0" standalone="no"?>
<!-- Generator: Adobe Fireworks 10, Export SVG Extension by Aaron Beall (http://fireworks.abeall.com) . Version: 0.6.1  -->
<!DOCTYPE svg PUBLIC "-//W3C//DTD SVG 1.1//EN" "http://www.w3.org/Graphics/SVG/1.1/DTD/svg11.dtd">
<svg id="Untitled-Page%201" viewBox="0 0 70 85" style="background-color:#ffffff00" version="1.1"
	xmlns="http://www.w3.org/2000/svg" xmlns:xlink="http://www.w3.org/1999/xlink" xml:space="preserve"
	x="0px" y="0px" width="70px" height="85px"
>
	<g id="Layer%201">
		<g>
			<path d="M 67 18.812 C 67 14.1021 63.1552 10.2842 58.4121 10.2842 C 54.0815 10.2842 50.5015 13.468 49.9116 17.6064 C 49.8566 17.5774 49.8245 17.5613 49.8245 17.5613 C 42.8015 14.4155 36.8854 19.9868 36.8854 19.9868 L 21.2371 35.6021 L 27.4202 41.5146 L 40.0154 29.2271 C 45.897 23.3862 49.0994 27.3398 49.0994 27.3398 C 53.527 31.0537 49.252 35.4507 49.252 35.4507 L 55.5881 41.5146 C 60.762 35.9658 61.0619 31.123 59.4893 27.2703 C 63.7234 26.7439 67 23.1592 67 18.812 L 67 18.812 Z" fill="#f9ae41"/>
			<path d="M 59.5691 58.031 C 59.5981 57.9766 59.6147 57.9448 59.6147 57.9448 C 62.7827 50.9707 57.1719 45.0962 57.1719 45.0962 L 41.4464 29.5566 L 35.4924 35.6968 L 47.8665 48.2041 C 53.7483 54.0447 49.7673 57.2246 49.7673 57.2246 C 46.0269 61.6211 41.5992 57.3765 41.5992 57.3765 L 35.4924 63.6675 C 41.0801 68.8052 45.9574 69.1035 49.8367 67.5415 C 50.3669 71.7463 53.9773 75 58.3551 75 C 63.0981 75 66.9427 71.1821 66.9427 66.4722 C 66.9427 62.1719 63.7368 58.6172 59.5691 58.031 L 59.5691 58.031 Z" fill="#ee4035"/>
			<path d="M 41.5801 43.4854 L 28.9849 55.7729 C 23.1033 61.6133 19.9006 57.6606 19.9006 57.6606 C 15.473 53.9463 19.748 49.5498 19.748 49.5498 L 13.4124 43.4858 C 8.2385 49.0342 7.9384 53.877 9.5107 57.7297 C 5.2764 58.2561 2 61.8408 2 66.188 C 2 70.8977 5.8448 74.7158 10.5879 74.7158 C 14.9185 74.7163 18.4985 71.5325 19.0884 67.3938 C 19.1436 67.4231 19.1755 67.439 19.1755 67.439 C 26.1987 70.5852 32.1146 65.0132 32.1146 65.0132 L 47.7634 49.3979 L 41.5801 43.4854 L 41.5801 43.4854 Z" fill="#4f91cd"/>
			<path d="M 21.1335 36.7959 C 15.252 30.9556 19.2323 27.7754 19.2323 27.7754 C 22.9731 23.3789 27.4005 27.6235 27.4005 27.6235 L 33.5076 21.3328 C 27.9197 16.1953 23.0427 15.897 19.1633 17.4585 C 18.6328 13.2534 15.0231 10 10.6448 10 C 5.9021 10 2.0574 13.8179 2.0571 18.5278 C 2.0571 22.8286 5.2629 26.3833 9.4308 26.969 C 9.4016 27.0239 9.3853 27.0557 9.3853 27.0557 C 6.2169 34.0293 11.8279 39.9038 11.8279 39.9038 L 27.5536 55.4434 L 33.5078 49.3032 L 21.1335 36.7959 L 21.1335 36.7959 Z" fill="#7ac043"/>
		</g>
	</g>
</svg>