<?xml version="1.0" standalone="no"?>
<!-- Generator: Adobe Fireworks 10, Export SVG Extension by Aaron Beall (http://fireworks.abeall.com) . Version: 0.6.1  -->
<!DOCTYPE svg PUBLIC "-//W3C//DTD SVG 1.1//EN" "http://www.w3.org/Graphics/SVG/1.1/DTD/svg11.dtd">
<svg id="Untitled-Page%201" viewBox="0 0 70 85" style="background-color:#ffffff00" version="1.1"
	xmlns="http://www.w3.org/2000/svg" xmlns:xlink="http://www.w3.org/1999/xlink" xml:space="preserve"
	x="0px" y="0px" width="70px" height="85px"
>
	<g id="Layer%201">
		<path d="M 66.0441 33.0649 C 60.7681 27.854 52.215 27.854 46.9403 33.0649 L 25.4474 54.2979 C 24.1288 55.6001 24.1288 57.7139 25.4474 59.0159 C 26.7675 60.3193 28.9058 60.3193 30.2238 59.0159 L 51.7152 37.7839 C 54.3525 35.1775 58.6298 35.1775 61.2671 37.7839 C 63.9044 40.3894 63.9044 44.6143 61.2671 47.2197 L 40.1891 68.0439 C 42.8265 70.6492 47.1017 70.6492 49.741 68.0439 L 66.0441 51.9385 C 71.3187 46.7256 71.3187 38.2769 66.0441 33.0649 ZM 58.88 40.1421 C 57.5613 38.8403 55.4217 38.8403 54.103 40.1421 L 32.6115 61.374 C 29.9742 63.9795 25.697 63.9795 23.0597 61.374 C 21.741 60.072 19.6034 60.072 18.2848 61.374 C 16.9641 62.6775 16.9641 64.79 18.2848 66.092 C 23.5587 71.3042 32.1125 71.3042 37.3885 66.092 L 58.88 44.8604 C 60.1979 43.5581 60.1979 41.4443 58.88 40.1421 ZM 51.7152 18.9106 C 46.4393 13.6982 37.8875 13.6982 32.6115 18.9106 L 11.12 40.1421 C 9.8021 41.4443 9.8021 43.5581 11.12 44.8604 C 12.4387 46.1636 14.577 46.1636 15.8956 44.8604 L 37.3885 23.6289 C 40.0258 21.0229 44.3016 21.0229 46.9383 23.6289 C 48.259 24.9316 50.3966 24.9316 51.7152 23.6289 C 53.0339 22.3252 53.0339 20.2134 51.7152 18.9106 ZM 44.5511 25.9875 C 43.2325 24.6848 41.0942 24.6848 39.7762 25.9875 L 18.2848 47.2197 C 15.6454 49.8252 11.3702 49.8252 8.7329 47.2197 C 6.0936 44.6143 6.0936 40.3894 8.7329 37.7827 L 29.8109 16.9595 C 27.1735 14.3533 22.8963 14.3533 20.259 16.9595 L 3.9559 33.0645 C -1.3187 38.2769 -1.3187 46.7256 3.9559 51.9385 C 9.2319 57.1506 17.7837 57.1506 23.0597 51.9385 L 44.5511 30.7058 C 45.8698 29.4031 45.8698 27.2903 44.5511 25.9875 Z" fill="#000000"/>
	</g>
</svg>