<?xml version="1.0" standalone="no"?>
<!-- Generator: Adobe Fireworks 10, Export SVG Extension by Aaron Beall (http://fireworks.abeall.com) . Version: 0.6.1  -->
<!DOCTYPE svg PUBLIC "-//W3C//DTD SVG 1.1//EN" "http://www.w3.org/Graphics/SVG/1.1/DTD/svg11.dtd">
<svg id="Untitled-Page%201" viewBox="0 0 70 85" style="background-color:#ffffff00" version="1.1"
	xmlns="http://www.w3.org/2000/svg" xmlns:xlink="http://www.w3.org/1999/xlink" xml:space="preserve"
	x="0px" y="0px" width="70px" height="85px"
>
	<g id="Layer%201">
		<g>
			<path d="M 20.9838 15.7444 L 37.1406 15.5 C 44.5391 15.7009 48.6508 20.8569 48.5745 26.7393 C 49.2916 33.6899 47.3008 41.561 36.1463 41.3994 L 20.238 41.3994 C 13.2241 41.4658 7.6235 37.4136 8.0584 29.4268 C 7.7109 22.8101 9.9333 15.6489 20.9838 15.7444 Z" stroke="#f57d00" stroke-width="13" fill="none"/>
			<path d="M 47.0833 69.4973 L 22.2266 69.4973 C 11.8691 69.6279 6.8802 64.9858 7.5615 54.3489 C 7.6103 44.7871 13.2518 42.0569 21.7294 41.8882 L 46.3375 41.8882 C 63.0698 41.4487 61.2423 41.2896 61.5 54.5933 C 61.3945 64.2646 55.9841 69.4233 47.0833 69.4973 Z" stroke="#f57d00" stroke-width="13" fill="none"/>
			<path d="M 7.5615 56.3032 L 8.0584 26.9834 L 8.0584 26.9834 " stroke="#f57d00" stroke-width="13" fill="none"/>
		</g>
	</g>
</svg>