<?xml version="1.0" standalone="no"?>
<!-- Generator: Adobe Fireworks 10, Export SVG Extension by Aaron Beall (http://fireworks.abeall.com) . Version: 0.6.1  -->
<!DOCTYPE svg PUBLIC "-//W3C//DTD SVG 1.1//EN" "http://www.w3.org/Graphics/SVG/1.1/DTD/svg11.dtd">
<svg id="Untitled-Page%201" viewBox="0 0 70 85" style="background-color:#ffffff00" version="1.1"
	xmlns="http://www.w3.org/2000/svg" xmlns:xlink="http://www.w3.org/1999/xlink" xml:space="preserve"
	x="0px" y="0px" width="70px" height="85px"
>
	<defs>
			<clipPath id="mask1">
				<path d="M 67.3854 36.0835 L 63.375 36.0835 L 50.2205 36.0835 L 34.5 36.0835 L 34.5 49.7188 L 53.4289 49.7188 C 51.6649 58.3818 44.2848 63.354 34.5 63.354 C 22.9496 63.354 13.6459 54.0503 13.6459 42.5 C 13.6459 30.9497 22.9496 21.646 34.5 21.646 C 39.4723 21.646 43.9652 23.4106 47.4932 26.2979 L 57.7604 16.0313 C 51.5035 10.5771 43.4827 7.2085 34.5 7.2085 C 14.9289 7.2085 -0.7916 22.929 -0.7916 42.5 C -0.7916 62.071 14.9289 77.7915 34.5 77.7915 C 52.1459 77.7915 68.1875 64.9585 68.1875 42.5 C 68.1875 40.4148 67.8664 38.1685 67.3854 36.0835 Z" fill="none"/>
			</clipPath>
			<clipPath id="mask2">
				<path d="M 67.3854 36.0835 L 63.375 36.0835 L 50.2205 36.0835 L 34.5 36.0835 L 34.5 49.7188 L 53.4289 49.7188 C 51.6649 58.3818 44.2848 63.354 34.5 63.354 C 22.9496 63.354 13.6459 54.0503 13.6459 42.5 C 13.6459 30.9497 22.9496 21.646 34.5 21.646 C 39.4723 21.646 43.9652 23.4106 47.4932 26.2979 L 57.7604 16.0313 C 51.5035 10.5771 43.4827 7.2085 34.5 7.2085 C 14.9289 7.2085 -0.7916 22.929 -0.7916 42.5 C -0.7916 62.071 14.9289 77.7915 34.5 77.7915 C 52.1459 77.7915 68.1875 64.9585 68.1875 42.5 C 68.1875 40.4148 67.8664 38.1685 67.3854 36.0835 Z" fill="none"/>
			</clipPath>
			<clipPath id="mask3">
				<path d="M 67.3854 36.0835 L 63.375 36.0835 L 50.2205 36.0835 L 34.5 36.0835 L 34.5 49.7188 L 53.4289 49.7188 C 51.6649 58.3818 44.2848 63.354 34.5 63.354 C 22.9496 63.354 13.6459 54.0503 13.6459 42.5 C 13.6459 30.9497 22.9496 21.646 34.5 21.646 C 39.4723 21.646 43.9652 23.4106 47.4932 26.2979 L 57.7604 16.0313 C 51.5035 10.5771 43.4827 7.2085 34.5 7.2085 C 14.9289 7.2085 -0.7916 22.929 -0.7916 42.5 C -0.7916 62.071 14.9289 77.7915 34.5 77.7915 C 52.1459 77.7915 68.1875 64.9585 68.1875 42.5 C 68.1875 40.4148 67.8664 38.1685 67.3854 36.0835 Z" fill="none"/>
			</clipPath>
			<clipPath id="mask4">
				<path d="M 67.3854 36.0835 L 63.375 36.0835 L 50.2205 36.0835 L 34.5 36.0835 L 34.5 49.7188 L 53.4289 49.7188 C 51.6649 58.3818 44.2848 63.354 34.5 63.354 C 22.9496 63.354 13.6459 54.0503 13.6459 42.5 C 13.6459 30.9497 22.9496 21.646 34.5 21.646 C 39.4723 21.646 43.9652 23.4106 47.4932 26.2979 L 57.7604 16.0313 C 51.5035 10.5771 43.4827 7.2085 34.5 7.2085 C 14.9289 7.2085 -0.7916 22.929 -0.7916 42.5 C -0.7916 62.071 14.9289 77.7915 34.5 77.7915 C 52.1459 77.7915 68.1875 64.9585 68.1875 42.5 C 68.1875 40.4148 67.8664 38.1685 67.3854 36.0835 Z" fill="none"/>
			</clipPath>
	</defs>
	<g id="Layer%201">
		<g>
				<path d="M 67.3854 36.0835 L 63.375 36.0835 L 50.2205 36.0835 L 34.5 36.0835 L 34.5 49.7188 L 53.4289 49.7188 C 51.6649 58.3818 44.2848 63.354 34.5 63.354 C 22.9496 63.354 13.6459 54.0503 13.6459 42.5 C 13.6459 30.9497 22.9496 21.646 34.5 21.646 C 39.4723 21.646 43.9652 23.4106 47.4932 26.2979 L 57.7604 16.0313 C 51.5035 10.5771 43.4827 7.2085 34.5 7.2085 C 14.9289 7.2085 -0.7916 22.929 -0.7916 42.5 C -0.7916 62.071 14.9289 77.7915 34.5 77.7915 C 52.1459 77.7915 68.1875 64.9585 68.1875 42.5 C 68.1875 40.4148 67.8664 38.1685 67.3854 36.0835 Z" fill="none"/>
			<path clip-path="url(#mask1)" d="M -4 63.354 L -4 21.646 L 23.2709 42.5 L -4 63.354 Z" fill="#fbbc05"/>
				<path d="M 67.3854 36.0835 L 63.375 36.0835 L 50.2205 36.0835 L 34.5 36.0835 L 34.5 49.7188 L 53.4289 49.7188 C 51.6649 58.3818 44.2848 63.354 34.5 63.354 C 22.9496 63.354 13.6459 54.0503 13.6459 42.5 C 13.6459 30.9497 22.9496 21.646 34.5 21.646 C 39.4723 21.646 43.9652 23.4106 47.4932 26.2979 L 57.7604 16.0313 C 51.5035 10.5771 43.4827 7.2085 34.5 7.2085 C 14.9289 7.2085 -0.7916 22.929 -0.7916 42.5 C -0.7916 62.071 14.9289 77.7915 34.5 77.7915 C 52.1459 77.7915 68.1875 64.9585 68.1875 42.5 C 68.1875 40.4148 67.8664 38.1685 67.3854 36.0835 Z" fill="none"/>
			<path clip-path="url(#mask2)" d="M -4 21.646 L 23.2709 42.5 L 34.5 32.7144 L 73 26.4585 L 73 4 L -4 4 L -4 21.646 Z" fill="#ea4335"/>
				<path d="M 67.3854 36.0835 L 63.375 36.0835 L 50.2205 36.0835 L 34.5 36.0835 L 34.5 49.7188 L 53.4289 49.7188 C 51.6649 58.3818 44.2848 63.354 34.5 63.354 C 22.9496 63.354 13.6459 54.0503 13.6459 42.5 C 13.6459 30.9497 22.9496 21.646 34.5 21.646 C 39.4723 21.646 43.9652 23.4106 47.4932 26.2979 L 57.7604 16.0313 C 51.5035 10.5771 43.4827 7.2085 34.5 7.2085 C 14.9289 7.2085 -0.7916 22.929 -0.7916 42.5 C -0.7916 62.071 14.9289 77.7915 34.5 77.7915 C 52.1459 77.7915 68.1875 64.9585 68.1875 42.5 C 68.1875 40.4148 67.8664 38.1685 67.3854 36.0835 Z" fill="none"/>
			<path clip-path="url(#mask3)" d="M -4 63.354 L 44.125 26.4585 L 56.7986 28.0625 L 73 4 L 73 81 L -4 81 L -4 63.354 Z" fill="#34a853"/>
				<path d="M 67.3854 36.0835 L 63.375 36.0835 L 50.2205 36.0835 L 34.5 36.0835 L 34.5 49.7188 L 53.4289 49.7188 C 51.6649 58.3818 44.2848 63.354 34.5 63.354 C 22.9496 63.354 13.6459 54.0503 13.6459 42.5 C 13.6459 30.9497 22.9496 21.646 34.5 21.646 C 39.4723 21.646 43.9652 23.4106 47.4932 26.2979 L 57.7604 16.0313 C 51.5035 10.5771 43.4827 7.2085 34.5 7.2085 C 14.9289 7.2085 -0.7916 22.929 -0.7916 42.5 C -0.7916 62.071 14.9289 77.7915 34.5 77.7915 C 52.1459 77.7915 68.1875 64.9585 68.1875 42.5 C 68.1875 40.4148 67.8664 38.1685 67.3854 36.0835 Z" fill="none"/>
			<path clip-path="url(#mask4)" d="M 73 81 L 23.2709 42.5 L 16.8541 37.6875 L 73 21.646 L 73 81 Z" fill="#4285f4"/>
		</g>
	</g>
</svg>