<?xml version="1.0" standalone="no"?>
<!-- Generator: Adobe Fireworks 10, Export SVG Extension by Aaron Beall (http://fireworks.abeall.com) . Version: 0.6.1  -->
<!DOCTYPE svg PUBLIC "-//W3C//DTD SVG 1.1//EN" "http://www.w3.org/Graphics/SVG/1.1/DTD/svg11.dtd">
<svg id="Untitled-Page%201" viewBox="0 0 70 85" style="background-color:#ffffff00" version="1.1"
	xmlns="http://www.w3.org/2000/svg" xmlns:xlink="http://www.w3.org/1999/xlink" xml:space="preserve"
	x="0px" y="0px" width="70px" height="85px"
>
	<g id="Layer%201">
		<g>
			<g>
				<path d="M 70 77.5 L 0 77.5 L 0 7.5 L 70 7.5 L 70 77.5 Z" fill="#35fa00"/>
			</g>
			<g>
				<path d="M 66.92 74.4199 L 3.08 74.4199 L 3.08 10.5801 L 66.92 10.5801 L 66.92 74.4199 Z" fill="#072600"/>
			</g>
			<g>
				<path d="M 9.4936 24.7681 C 9.4936 24.5757 9.5338 24.4792 9.7744 24.4312 C 12.1819 24.3347 15.1911 24.2866 17.799 24.2866 C 26.8668 24.2866 31.4408 30.499 31.4408 39.7456 C 31.4408 53.4712 22.4533 55.9272 16.9966 55.9272 C 14.1479 55.9272 12.0615 55.8789 9.7744 55.8311 C 9.5739 55.8311 9.4936 55.7346 9.4936 55.3975 L 9.4936 24.7681 ZM 14.3485 51.3037 C 15.0706 51.3521 16.0337 51.3521 17.1571 51.3521 C 22.7742 51.3521 26.4655 47.8364 26.4655 39.8901 C 26.4655 32.6182 23.2958 28.9097 17.799 28.9097 C 15.9935 28.9097 14.7095 28.958 14.3485 29.0063 L 14.3485 51.3037 Z" fill="#35fa00"/>
			</g>
			<g>
				<path d="M 51.8077 56.1021 C 51.5317 56.1021 51.453 56.0059 51.3743 55.7168 C 49.1668 44.9775 48.4178 40.9321 48.0236 38.6685 L 47.9842 38.6685 C 47.5901 41.0764 46.644 45.3628 44.1607 55.7168 C 44.082 56.0059 43.9636 56.1021 43.7271 56.1021 L 39.3517 56.1021 C 38.9971 56.1021 38.9181 55.9578 38.8394 55.6689 L 33.6756 33.082 C 33.5967 32.8413 33.6756 32.6968 33.9121 32.6968 L 38.1298 32.6968 C 38.3663 32.6968 38.4451 32.7451 38.4844 32.9858 C 41.1649 45.459 41.7167 48.9746 41.9926 50.7085 L 42.0717 50.7085 C 42.2291 49.8896 43.2146 44.8811 45.8163 33.082 C 45.8557 32.793 45.8951 32.6968 46.171 32.6968 L 50.3888 32.6968 C 50.5857 32.6968 50.6647 32.793 50.704 32.9858 C 53.2662 45.2664 53.897 49.1191 54.1729 50.8525 L 54.2516 50.8525 C 54.7247 48.0112 55.4736 43.3882 57.9174 33.0339 C 57.957 32.793 58.0751 32.6968 58.2329 32.6968 L 62.1351 32.6968 C 62.2929 32.6968 62.411 32.793 62.3716 33.0339 L 56.6563 55.7168 C 56.5772 56.0059 56.5379 56.1021 56.2226 56.1021 L 51.8077 56.1021 Z" fill="#35fa00"/>
			</g>
		</g>
	</g>
</svg>