<?xml version="1.0" standalone="no"?>
<!-- Generator: Adobe Fireworks 10, Export SVG Extension by Aaron Beall (http://fireworks.abeall.com) . Version: 0.6.1  -->
<!DOCTYPE svg PUBLIC "-//W3C//DTD SVG 1.1//EN" "http://www.w3.org/Graphics/SVG/1.1/DTD/svg11.dtd">
<svg id="Untitled-Page%201" viewBox="0 0 170 113" style="background-color:#ffffff00" version="1.1"
	xmlns="http://www.w3.org/2000/svg" xmlns:xlink="http://www.w3.org/1999/xlink" xml:space="preserve"
	x="0px" y="0px" width="170px" height="113px"
>
	<g id="Layer%201">
		<rect x="17" y="1" width="136" height="99" fill="#f3f7fb" rx="4" ry="4"/>
		<path d="M 22 1 C 19.2385 1 17 3.2385 17 6 L 17 86 L 153 86 L 153 6 C 153 3.2385 150.7615 1 148 1 L 22 1 Z" fill="#ffffff"/>
		<path d="M 17 86 L 152 86 " stroke="#3167a9" stroke-width="2" fill="none"/>
		<path d="M 68 100 C 68 100 66.9957 107.2174 62 112 L 108 112 C 103.0043 107.2174 102 100 102 100 L 68 100 Z" stroke="#3268a9" stroke-width="2" fill="#f3f7fb"/>
		<path d="M 1 112 L 169 112 " stroke="#3167a9" stroke-width="2" fill="none"/>
		<rect x="17" y="1" width="136" height="99" stroke="#3167a9" stroke-width="2" fill="none" rx="4" ry="4"/>
		<path d="M 32 10 L 32 26 L 40 26 L 45 31 L 50 26 L 138 26 L 138 10 L 32 10 Z" stroke="#adc3db" stroke-width="2" fill="#ffffff"/>
		<g>
			<path d="M 40.8594 21 L 37.4844 21 L 37.4844 18 L 40.6406 18 L 40.6406 17 L 37.4844 17 L 37.4844 15 L 40.8594 15 L 40.8594 14 L 36.5625 14 L 36.5625 22 L 40.8594 22 L 40.8594 21 L 40.8594 21 Z" fill="#064685"/>
			<path d="M 46.8281 22 L 49.5313 14.9219 L 49.5781 14.9219 C 49.5156 15.625 49.5 16.2656 49.5 16.8438 L 49.5 22 L 50.4219 22 L 50.4219 14 L 49.0625 14 L 46.5313 20.5938 L 46.4844 20.5938 L 43.9688 14 L 42.5938 14 L 42.5938 22 L 43.4375 22 L 43.4375 16.9063 C 43.4375 16.1406 43.4063 15.4688 43.3594 14.9063 L 43.4063 14.9063 L 46.0938 22 L 46.8281 22 L 46.8281 22 Z" fill="#064685"/>
			<path d="M 58.5 22 L 55.3906 14 L 54.625 14 L 51.5 22 L 52.4219 22 L 53.3906 20 L 56.5625 20 L 57.5469 22 L 58.5 22 L 58.5 22 ZM 53.7188 19 L 54.6406 16.3281 C 54.7813 15.8906 54.8906 15.4688 54.9844 15.0938 C 55.1094 15.5938 55.2344 16 55.3594 16.3281 L 56.2813 19 L 53.7188 19 L 53.7188 19 Z" fill="#064685"/>
			<path d="M 60.4844 22 L 60.4844 14 L 59.5625 14 L 59.5625 22 L 60.4844 22 L 60.4844 22 Z" fill="#064685"/>
			<path d="M 67.2344 22 L 67.2344 21 L 63.5625 21 L 63.5625 14 L 62.6406 14 L 62.6406 22 L 67.2344 22 L 67.2344 22 Z" fill="#064685"/>
			<path d="M 72.8594 21 L 69.4844 21 L 69.4844 18 L 72.6406 18 L 72.6406 17 L 69.4844 17 L 69.4844 15 L 72.8594 15 L 72.8594 14 L 68.5625 14 L 68.5625 22 L 72.8594 22 L 72.8594 21 L 72.8594 21 Z" fill="#064685"/>
			<path d="M 79.8125 15.0313 C 79.125 14.3438 78.1875 14 76.9844 14 L 74.5781 14 L 74.5781 22 L 76.75 22 C 78.0625 22 79.0625 21.6563 79.7656 20.9531 C 80.4688 20.2656 80.8281 19.25 80.8281 17.9219 C 80.8281 16.6875 80.4844 15.7188 79.8125 15.0313 L 79.8125 15.0313 ZM 79.0469 20.2344 C 78.5 20.75 77.6875 21 76.6094 21 L 75.5 21 L 75.5 15 L 76.8125 15 C 77.8125 15 78.5781 15.25 79.0938 15.75 C 79.5938 16.25 79.8594 16.9844 79.8594 17.9531 C 79.8594 18.9688 79.5781 19.7344 79.0469 20.2344 L 79.0469 20.2344 Z" fill="#064685"/>
			<path d="M 89.8281 22 L 92.5313 14.9219 L 92.5781 14.9219 C 92.5156 15.625 92.5 16.2656 92.5 16.8438 L 92.5 22 L 93.4219 22 L 93.4219 14 L 92.0625 14 L 89.5313 20.5938 L 89.4844 20.5938 L 86.9688 14 L 85.5938 14 L 85.5938 22 L 86.4375 22 L 86.4375 16.9063 C 86.4375 16.1406 86.4063 15.4688 86.3594 14.9063 L 86.4063 14.9063 L 89.0938 22 L 89.8281 22 L 89.8281 22 Z" fill="#064685"/>
			<path d="M 101.7969 15.0625 C 101.125 14.3594 100.2031 14 99.0156 14 C 97.7969 14 96.8438 14.3594 96.1875 15.0469 C 95.5313 15.75 95.2031 16.7344 95.2031 17.9844 C 95.2031 19.2656 95.5313 20.2656 96.1875 20.9531 C 96.8438 21.6563 97.7969 22 99.0156 22 C 100.2031 22 101.125 21.6563 101.7969 20.9375 C 102.4531 20.2188 102.7969 19.25 102.7969 18 C 102.7969 16.75 102.4531 15.7813 101.7969 15.0625 L 101.7969 15.0625 ZM 96.8906 15.7656 C 97.375 15.2656 98.0781 15 99.0156 15 C 99.9375 15 100.6406 15.2656 101.1094 15.7656 C 101.5781 16.2656 101.8281 17.0156 101.8281 17.9844 C 101.8281 18.9844 101.5781 19.7344 101.1094 20.2344 C 100.6406 20.75 99.9375 21 99.0156 21 C 98.0781 21 97.375 20.75 96.8906 20.2344 C 96.4063 19.7344 96.1719 18.9844 96.1719 17.9844 C 96.1719 17.0156 96.4063 16.2813 96.8906 15.7656 L 96.8906 15.7656 Z" fill="#064685"/>
			<path d="M 110.4531 14 L 109.5938 14 L 109.5938 18.5938 C 109.5781 18.8281 109.5781 19.2188 109.6094 19.75 C 109.6406 20.2813 109.6563 20.5938 109.6719 20.6875 L 109.625 20.6875 L 105.5781 14 L 104.5469 14 L 104.5469 22 L 105.3906 22 L 105.3906 17.4531 C 105.3906 16.7969 105.3594 16.0781 105.3125 15.2813 L 105.3438 15.2813 L 109.4063 22 L 110.4531 22 L 110.4531 14 L 110.4531 14 Z" fill="#064685"/>
			<path d="M 117.8125 15.0313 C 117.125 14.3438 116.1875 14 114.9844 14 L 112.5781 14 L 112.5781 22 L 114.75 22 C 116.0625 22 117.0625 21.6563 117.7656 20.9531 C 118.4688 20.2656 118.8281 19.25 118.8281 17.9219 C 118.8281 16.6875 118.4844 15.7188 117.8125 15.0313 L 117.8125 15.0313 ZM 117.0469 20.2344 C 116.5 20.75 115.6875 21 114.6094 21 L 113.5 21 L 113.5 15 L 114.8125 15 C 115.8125 15 116.5781 15.25 117.0938 15.75 C 117.5938 16.25 117.8594 16.9844 117.8594 17.9531 C 117.8594 18.9688 117.5781 19.7344 117.0469 20.2344 L 117.0469 20.2344 Z" fill="#064685"/>
			<path d="M 126.5 22 L 123.3906 14 L 122.625 14 L 119.5 22 L 120.4219 22 L 121.3906 20 L 124.5625 20 L 125.5469 22 L 126.5 22 L 126.5 22 ZM 121.7188 19 L 122.6406 16.3281 C 122.7813 15.8906 122.8906 15.4688 122.9844 15.0938 C 123.1094 15.5938 123.2344 16 123.3594 16.3281 L 124.2813 19 L 121.7188 19 L 121.7188 19 Z" fill="#064685"/>
			<path d="M 127.4688 14 L 126.5 14 L 129.0469 18.9375 L 129.0469 22 L 129.9844 22 L 129.9844 18.8906 L 132.5 14 L 131.5313 14 L 129.5 18 L 127.4688 14 L 127.4688 14 Z" fill="#064685"/>
		</g>
		<path d="M 32 58 L 32 74 L 40 74 L 45 79 L 50 74 L 109 74 L 109 58 L 32 58 Z" stroke="#adc3db" stroke-width="2" fill="#ffffff"/>
		<g>
			<path d="M 41.8125 63.0313 C 41.125 62.3438 40.1875 62 38.9844 62 L 36.5781 62 L 36.5781 70 L 38.75 70 C 40.0625 70 41.0625 69.6563 41.7656 68.9531 C 42.4688 68.2656 42.8281 67.25 42.8281 65.9219 C 42.8281 64.6875 42.4844 63.7188 41.8125 63.0313 L 41.8125 63.0313 ZM 41.0469 68.2344 C 40.5 68.75 39.6875 69 38.6094 69 L 37.5 69 L 37.5 63 L 38.8125 63 C 39.8125 63 40.5781 63.25 41.0938 63.75 C 41.5938 64.25 41.8594 64.9844 41.8594 65.9531 C 41.8594 66.9688 41.5781 67.7344 41.0469 68.2344 L 41.0469 68.2344 Z" fill="#064685"/>
			<path d="M 50.5 70 L 47.3906 62 L 46.625 62 L 43.5 70 L 44.4219 70 L 45.3906 68 L 48.5625 68 L 49.5469 70 L 50.5 70 L 50.5 70 ZM 45.7188 67 L 46.6406 64.3281 C 46.7813 63.8906 46.8906 63.4688 46.9844 63.0938 C 47.1094 63.5938 47.2344 64 47.3594 64.3281 L 48.2813 67 L 45.7188 67 L 45.7188 67 Z" fill="#064685"/>
			<path d="M 54.5313 67.1406 C 54.3125 67.7344 54.125 68.3125 53.9844 68.9063 C 53.8594 68.3438 53.6875 67.7656 53.4688 67.1719 L 51.5313 62 L 50.5 62 L 53.5156 70 L 54.4688 70 L 57.5 62 L 56.4531 62 L 54.5313 67.1406 L 54.5313 67.1406 Z" fill="#064685"/>
			<path d="M 59.4844 70 L 59.4844 62 L 58.5625 62 L 58.5625 70 L 59.4844 70 L 59.4844 70 Z" fill="#064685"/>
			<path d="M 66.8125 63.0313 C 66.125 62.3438 65.1875 62 63.9844 62 L 61.5781 62 L 61.5781 70 L 63.75 70 C 65.0625 70 66.0625 69.6563 66.7656 68.9531 C 67.4688 68.2656 67.8281 67.25 67.8281 65.9219 C 67.8281 64.6875 67.4844 63.7188 66.8125 63.0313 L 66.8125 63.0313 ZM 66.0469 68.2344 C 65.5 68.75 64.6875 69 63.6094 69 L 62.5 69 L 62.5 63 L 63.8125 63 C 64.8125 63 65.5781 63.25 66.0938 63.75 C 66.5938 64.25 66.8594 64.9844 66.8594 65.9531 C 66.8594 66.9688 66.5781 67.7344 66.0469 68.2344 L 66.0469 68.2344 Z" fill="#064685"/>
			<path d="M 76.5156 66.5156 C 76.2031 66.1875 75.6406 65.875 74.8281 65.5781 C 74.3438 65.4219 73.9844 65.2656 73.75 65.1094 C 73.5 64.9688 73.3281 64.8125 73.2344 64.6406 C 73.1406 64.4688 73.0938 64.25 73.0938 63.9688 C 73.0938 63.6719 73.2188 63.4375 73.5 63.2656 C 73.7656 63.0938 74.1406 63 74.625 63 C 75.2188 63 75.8438 63.1406 76.5 63.4219 L 76.7813 62.5313 C 76.125 62.1875 75.4219 62 74.6406 62 C 73.8906 62 73.2969 62.1875 72.8438 62.5313 C 72.3906 62.8906 72.1719 63.375 72.1719 63.9688 C 72.1719 64.5313 72.3281 65 72.6406 65.3594 C 72.9531 65.7188 73.4688 66.0156 74.1875 66.2656 C 74.7031 66.4531 75.0938 66.625 75.3438 66.7656 C 75.5938 66.9219 75.7813 67.0781 75.8906 67.25 C 76 67.4219 76.0625 67.6406 76.0625 67.9063 C 76.0625 68.25 75.9063 68.5313 75.5938 68.7188 C 75.2813 68.9063 74.8281 69 74.2344 69 C 73.8594 69 73.4844 68.9688 73.1094 68.8906 C 72.7344 68.8125 72.375 68.7031 72.0625 68.5469 L 72.0625 69.5469 C 72.5625 69.8594 73.2656 70 74.2031 70 C 75.0469 70 75.7344 69.8125 76.2344 69.4219 C 76.7344 69.0469 76.9844 68.5156 76.9844 67.8281 C 76.9844 67.2969 76.8281 66.8594 76.5156 66.5156 L 76.5156 66.5156 Z" fill="#064685"/>
			<path d="M 82.8281 70 L 85.5313 62.9219 L 85.5781 62.9219 C 85.5156 63.625 85.5 64.2656 85.5 64.8438 L 85.5 70 L 86.4219 70 L 86.4219 62 L 85.0625 62 L 82.5313 68.5938 L 82.4844 68.5938 L 79.9688 62 L 78.5938 62 L 78.5938 70 L 79.4375 70 L 79.4375 64.9063 C 79.4375 64.1406 79.4063 63.4688 79.3594 62.9063 L 79.4063 62.9063 L 82.0938 70 L 82.8281 70 L 82.8281 70 Z" fill="#064685"/>
			<path d="M 89.4844 70 L 89.4844 62 L 88.5625 62 L 88.5625 70 L 89.4844 70 L 89.4844 70 Z" fill="#064685"/>
			<path d="M 93.9688 63 L 96.4063 63 L 96.4063 62 L 90.5938 62 L 90.5938 63 L 93.0469 63 L 93.0469 70 L 93.9688 70 L 93.9688 63 L 93.9688 63 Z" fill="#064685"/>
			<path d="M 103.4375 62 L 102.5156 62 L 102.5156 65 L 98.4844 65 L 98.4844 62 L 97.5625 62 L 97.5625 70 L 98.4844 70 L 98.4844 66 L 102.5156 66 L 102.5156 70 L 103.4375 70 L 103.4375 62 L 103.4375 62 Z" fill="#064685"/>
		</g>
		<path d="M 138 34 L 138 50 L 130 50 L 125 55 L 120 50 L 59 50 L 59 34 L 138 34 Z" stroke="#adc3db" stroke-width="2" fill="#ffffff"/>
		<g>
			<path d="M 69.7969 39.0625 C 69.125 38.3594 68.2031 38 67.0156 38 C 65.7969 38 64.8438 38.3594 64.1875 39.0469 C 63.5313 39.75 63.2031 40.7344 63.2031 41.9844 C 63.2031 43.2656 63.5313 44.2656 64.1875 44.9531 C 64.8438 45.6563 65.7969 46 67.0156 46 C 68.2031 46 69.125 45.6563 69.7969 44.9375 C 70.4531 44.2188 70.7969 43.25 70.7969 42 C 70.7969 40.75 70.4531 39.7813 69.7969 39.0625 L 69.7969 39.0625 ZM 64.8906 39.7656 C 65.375 39.2656 66.0781 39 67.0156 39 C 67.9375 39 68.6406 39.2656 69.1094 39.7656 C 69.5781 40.2656 69.8281 41.0156 69.8281 41.9844 C 69.8281 42.9844 69.5781 43.7344 69.1094 44.2344 C 68.6406 44.75 67.9375 45 67.0156 45 C 66.0781 45 65.375 44.75 64.8906 44.2344 C 64.4063 43.7344 64.1719 42.9844 64.1719 41.9844 C 64.1719 41.0156 64.4063 40.2813 64.8906 39.7656 L 64.8906 39.7656 Z" fill="#064685"/>
			<path d="M 75.25 43 L 77.2344 46 L 78.3125 46 L 76.1094 42.6719 C 77.1875 42.2813 77.7344 41.5156 77.7344 40.3906 C 77.7344 39.6094 77.4844 39.0156 77.0156 38.6094 C 76.5469 38.2031 75.8125 38 74.8281 38 L 72.6094 38 L 72.6094 46 L 73.5313 46 L 73.5313 43 L 75.25 43 L 75.25 43 ZM 73.5313 39 L 74.7656 39 C 75.4688 39 75.9844 39.125 76.2969 39.3438 C 76.6094 39.5781 76.7813 39.9531 76.7813 40.4688 C 76.7813 40.9844 76.625 41.375 76.3125 41.625 C 76 41.875 75.5 42 74.8281 42 L 73.5313 42 L 73.5313 39 L 73.5313 39 Z" fill="#064685"/>
			<path d="M 84.8125 39.0313 C 84.125 38.3438 83.1875 38 81.9844 38 L 79.5781 38 L 79.5781 46 L 81.75 46 C 83.0625 46 84.0625 45.6563 84.7656 44.9531 C 85.4688 44.2656 85.8281 43.25 85.8281 41.9219 C 85.8281 40.6875 85.4844 39.7188 84.8125 39.0313 L 84.8125 39.0313 ZM 84.0469 44.2344 C 83.5 44.75 82.6875 45 81.6094 45 L 80.5 45 L 80.5 39 L 81.8125 39 C 82.8125 39 83.5781 39.25 84.0938 39.75 C 84.5938 40.25 84.8594 40.9844 84.8594 41.9531 C 84.8594 42.9688 84.5781 43.7344 84.0469 44.2344 L 84.0469 44.2344 Z" fill="#064685"/>
			<path d="M 91.8594 45 L 88.4844 45 L 88.4844 42 L 91.6406 42 L 91.6406 41 L 88.4844 41 L 88.4844 39 L 91.8594 39 L 91.8594 38 L 87.5625 38 L 87.5625 46 L 91.8594 46 L 91.8594 45 L 91.8594 45 Z" fill="#064685"/>
			<path d="M 96.25 43 L 98.2344 46 L 99.3125 46 L 97.1094 42.6719 C 98.1875 42.2813 98.7344 41.5156 98.7344 40.3906 C 98.7344 39.6094 98.4844 39.0156 98.0156 38.6094 C 97.5469 38.2031 96.8125 38 95.8281 38 L 93.6094 38 L 93.6094 46 L 94.5313 46 L 94.5313 43 L 96.25 43 L 96.25 43 ZM 94.5313 39 L 95.7656 39 C 96.4688 39 96.9844 39.125 97.2969 39.3438 C 97.6094 39.5781 97.7813 39.9531 97.7813 40.4688 C 97.7813 40.9844 97.625 41.375 97.3125 41.625 C 97 41.875 96.5 42 95.8281 42 L 94.5313 42 L 94.5313 39 L 94.5313 39 Z" fill="#064685"/>
			<path d="M 109.2344 41 L 109.2344 40 L 107.8281 40 L 108.2656 38 L 107.5469 38 L 107.1094 40 L 105.5 40 L 105.9375 38 L 105.1875 38 L 104.75 40 L 103.1719 40 L 103.1719 41 L 104.6406 41 L 104.2813 43 L 102.7656 43 L 102.7656 44 L 104.1563 44 L 103.7344 46 L 104.4688 46 L 104.9063 44 L 106.4844 44 L 106.0469 46 L 106.7813 46 L 107.2188 44 L 108.8438 44 L 108.8438 43 L 107.3438 43 L 107.6875 41 L 109.2344 41 L 109.2344 41 ZM 105.375 41 L 106.9531 41 L 106.6094 43 L 105.0313 43 L 105.375 41 L 105.375 41 Z" fill="#064685"/>
			<path d="M 115.2969 43 L 114.2188 43 L 114.2188 38 L 113.2656 38 L 109.7188 43.2344 L 109.7188 44 L 113.3594 44 L 113.3594 46 L 114.2188 46 L 114.2188 44 L 115.2969 44 L 115.2969 43 L 115.2969 43 ZM 110.6094 43 L 112.9219 39.7031 C 113.0469 39.4844 113.2031 39.2188 113.375 38.8906 L 113.4219 38.8906 C 113.375 39.5156 113.3594 40.0625 113.3594 40.5313 L 113.3594 43 L 110.6094 43 L 110.6094 43 Z" fill="#064685"/>
			<path d="M 120.3438 39.0313 C 119.9219 38.3438 119.3125 38 118.5 38 C 117.6563 38 117.0313 38.3281 116.625 38.9844 C 116.2188 39.6406 116.0156 40.6563 116.0156 42 C 116.0156 43.3125 116.2188 44.3125 116.6406 44.9844 C 117.0625 45.6719 117.6875 46 118.5 46 C 119.3281 46 119.9531 45.6719 120.3594 45.0156 C 120.7656 44.3594 120.9844 43.3438 120.9844 42 C 120.9844 40.7031 120.7656 39.7188 120.3438 39.0313 L 120.3438 39.0313 ZM 117.2969 39.7188 C 117.5469 39.25 117.9375 39 118.5 39 C 119.0469 39 119.4531 39.25 119.7031 39.7188 C 119.9531 40.2031 120.0781 40.9688 120.0781 42 C 120.0781 43.0313 119.9531 43.7969 119.7031 44.2813 C 119.4531 44.7656 119.0469 45 118.5 45 C 117.9375 45 117.5469 44.7656 117.2969 44.2813 C 117.0469 43.8125 116.9219 43.0469 116.9219 42 C 116.9219 40.9531 117.0469 40.1875 117.2969 39.7188 L 117.2969 39.7188 Z" fill="#064685"/>
			<path d="M 125.2031 38 L 124.4531 38 L 122.4688 39.4531 L 122.9219 40 C 123.6406 39.4531 124.0313 39.1406 124.125 39.0625 C 124.2188 39 124.2969 38.9219 124.375 38.8438 C 124.3438 39.2813 124.3281 39.7344 124.3281 40.2031 L 124.3281 46 L 125.2031 46 L 125.2031 38 L 125.2031 38 Z" fill="#064685"/>
			<path d="M 128.7656 45.0938 C 129.2188 45.7031 129.8438 46 130.625 46 C 131.3438 46 131.9063 45.7656 132.3438 45.2969 C 132.7656 44.8281 132.9844 44.1875 132.9844 43.375 C 132.9844 42.6563 132.7813 42.0781 132.4063 41.6406 C 132.0156 41.2188 131.5 41 130.8438 41 C 130.0313 41 129.4531 41.3125 129.0781 41.9219 L 129.0156 41.9219 C 129.0469 40.9219 129.2813 40.1719 129.7031 39.7031 C 130.1094 39.2344 130.7188 39 131.5156 39 C 131.8438 39 132.1406 39.0469 132.4063 39.1406 L 132.4063 38.1406 C 132.1875 38.0469 131.875 38 131.5 38 C 130.375 38 129.5156 38.3906 128.9531 39.1406 C 128.375 39.8906 128.0938 41.0313 128.0938 42.5625 C 128.0938 43.6563 128.3125 44.5 128.7656 45.0938 L 128.7656 45.0938 ZM 129.7813 44.7656 C 129.5313 44.6094 129.3438 44.4063 129.2188 44.125 C 129.0781 43.8594 129.0156 43.5625 129.0156 43.25 C 129.0156 43.0313 129.0781 42.8281 129.2344 42.6406 C 129.375 42.4531 129.5781 42.2969 129.8281 42.1719 C 130.0781 42.0625 130.3438 42 130.6563 42 C 131.125 42 131.4844 42.125 131.7344 42.375 C 131.9844 42.625 132.1094 42.9844 132.1094 43.4219 C 132.1094 43.9375 131.9688 44.3281 131.7188 44.5938 C 131.4531 44.875 131.0938 45 130.625 45 C 130.2969 45 130.0156 44.9219 129.7813 44.7656 L 129.7813 44.7656 Z" fill="#064685"/>
		</g>
	</g>
</svg>