<?xml version="1.0" standalone="no"?>
<!-- Generator: Adobe Fireworks 10, Export SVG Extension by Aaron Beall (http://fireworks.abeall.com) . Version: 0.6.1  -->
<!DOCTYPE svg PUBLIC "-//W3C//DTD SVG 1.1//EN" "http://www.w3.org/Graphics/SVG/1.1/DTD/svg11.dtd">
<svg id="Untitled-Page%201" viewBox="0 0 170 113" style="background-color:#ffffff00" version="1.1"
	xmlns="http://www.w3.org/2000/svg" xmlns:xlink="http://www.w3.org/1999/xlink" xml:space="preserve"
	x="0px" y="0px" width="170px" height="113px"
>
	<g id="Layer%201">
		<g>
			<rect x="17" y="1" width="136" height="99" fill="#f3f7fb" rx="4" ry="4"/>
			<path d="M 22 1 C 19.2385 1 17 3.2385 17 6 L 17 86 L 153 86 L 153 6 C 153 3.2385 150.7615 1 148 1 L 22 1 Z" fill="#ffffff"/>
			<rect x="17" y="1" width="136" height="99" stroke="#3167a9" stroke-width="2" fill="none" rx="4" ry="4"/>
			<path d="M 17 86 L 152 86 " stroke="#3167a9" stroke-width="2" fill="none"/>
			<path d="M 68 100 C 68 100 66.9957 107.2174 62 112 L 108 112 C 103.0043 107.2174 102 100 102 100 L 68 100 Z" stroke="#3268a9" stroke-width="2" fill="#f3f7fb"/>
			<path d="M 1 112 L 169 112 " stroke="#3167a9" stroke-width="2" fill="none"/>
			<path d="M 31 64 L 139 64 " stroke="#adc3db" stroke-width="2" fill="none"/>
			<path d="M 31 44 L 139 44 " stroke="#adc3db" stroke-width="2" fill="none"/>
			<path d="M 31 24 L 139 24 " stroke="#adc3db" stroke-width="2" fill="none"/>
			<path id="Ellipse" d="M 39.5 23.5 C 39.5 20.7385 41.7385 18.5 44.5 18.5 C 47.2615 18.5 49.5 20.7385 49.5 23.5 C 49.5 26.2615 47.2615 28.5 44.5 28.5 C 41.7385 28.5 39.5 26.2615 39.5 23.5 Z" stroke="#3167a9" stroke-width="2" fill="#ffffff"/>
			<path id="Ellipse2" d="M 109.5 43.5 C 109.5 40.7385 111.7385 38.5 114.5 38.5 C 117.2615 38.5 119.5 40.7385 119.5 43.5 C 119.5 46.2615 117.2615 48.5 114.5 48.5 C 111.7385 48.5 109.5 46.2615 109.5 43.5 Z" stroke="#3167a9" stroke-width="2" fill="#ffffff"/>
			<path id="Ellipse3" d="M 59.5 64.5 C 59.5 61.7385 61.7385 59.5 64.5 59.5 C 67.2615 59.5 69.5 61.7385 69.5 64.5 C 69.5 67.2615 67.2615 69.5 64.5 69.5 C 61.7385 69.5 59.5 67.2615 59.5 64.5 Z" stroke="#3167a9" stroke-width="2" fill="#ffffff"/>
		</g>
	</g>
</svg>