<?xml version="1.0" standalone="no"?>
<!-- Generator: Adobe Fireworks 10, Export SVG Extension by Aaron Beall (http://fireworks.abeall.com) . Version: 0.6.1  -->
<!DOCTYPE svg PUBLIC "-//W3C//DTD SVG 1.1//EN" "http://www.w3.org/Graphics/SVG/1.1/DTD/svg11.dtd">
<svg id="Untitled-Page%201" viewBox="0 0 170 113" style="background-color:#ffffff00" version="1.1"
	xmlns="http://www.w3.org/2000/svg" xmlns:xlink="http://www.w3.org/1999/xlink" xml:space="preserve"
	x="0px" y="0px" width="170px" height="113px"
>
	<g id="Layer%201">
		<g>
			<rect x="17" y="1" width="136" height="99" fill="#f3f7fb" rx="4" ry="4"/>
			<path d="M 22 1 C 19.2385 1 17 3.2385 17 6 L 17 86 L 153 86 L 153 6 C 153 3.2385 150.7615 1 148 1 L 22 1 Z" fill="#ffffff"/>
			<g>
				<path d="M 37.0339 78.9585 C 37.0339 80.7497 38.0342 83.3471 39.355 86 L 52.28 86 C 53.6161 83.3462 54.6221 80.7367 54.6221 78.9036 C 54.6221 68.5771 45.7576 68.4706 45.7576 68.4706 C 45.7576 68.4706 37.0339 68.5771 37.0339 78.9585 Z" stroke="#adc3db" stroke-width="2" fill="#ffffff"/>
				<path d="M 42.3103 77.2506 C 42.3103 75.3159 43.875 73.7318 45.828 73.7318 L 45.828 73.7318 C 47.762 73.7318 49.3456 75.3159 49.3456 77.2506 L 49.3456 77.2506 C 49.3456 79.2025 47.762 80.7695 45.828 80.7695 L 45.828 80.7695 C 43.875 80.7695 42.3103 79.2025 42.3103 77.2506 L 42.3103 77.2506 Z" stroke="#3268a9" stroke-width="2" fill="#ffffff"/>
			</g>
			<rect x="17" y="1" width="136" height="99" stroke="#3167a9" stroke-width="2" fill="none" rx="4" ry="4"/>
			<path d="M 17 86 L 152 86 " stroke="#3167a9" stroke-width="2" fill="none"/>
			<path d="M 68 100 C 68 100 66.9957 107.2174 62 112 L 108 112 C 103.0043 107.2174 102 100 102 100 L 68 100 Z" stroke="#3268a9" stroke-width="2" fill="#f3f7fb"/>
			<path d="M 1 112 L 169 112 " stroke="#3167a9" stroke-width="2" fill="none"/>
			<g>
				<path d="M 29.0339 34.9585 C 29.0339 40.0959 37.2474 51.8656 37.7214 52.5529 L 37.7214 52.5529 L 37.7386 52.5873 L 37.7386 52.5873 L 37.7386 52.5873 L 37.7386 52.5873 C 37.7576 52.5873 37.7576 52.6045 37.7576 52.6045 L 37.7576 52.6045 C 37.7576 52.6045 46.6221 40.34 46.6221 34.9036 L 46.6221 34.9036 C 46.6221 24.5771 37.7576 24.4706 37.7576 24.4706 L 37.7576 24.4706 C 37.7576 24.4706 29.0339 24.5771 29.0339 34.9585 L 29.0339 34.9585 Z" stroke="#adc3db" stroke-width="2" fill="#ffffff"/>
				<path d="M 34.3103 33.2506 C 34.3103 31.3159 35.875 29.7318 37.828 29.7318 L 37.828 29.7318 C 39.762 29.7318 41.3456 31.3159 41.3456 33.2506 L 41.3456 33.2506 C 41.3456 35.2025 39.762 36.7695 37.828 36.7695 L 37.828 36.7695 C 35.875 36.7695 34.3103 35.2025 34.3103 33.2506 L 34.3103 33.2506 Z" stroke="#3268a9" stroke-width="2" fill="#ffffff"/>
			</g>
			<g>
				<path d="M 52.0339 21.9585 C 52.0339 27.0959 60.2474 38.8656 60.7214 39.5529 L 60.7214 39.5529 L 60.7386 39.5873 L 60.7386 39.5873 L 60.7386 39.5873 L 60.7386 39.5873 C 60.7576 39.5873 60.7576 39.6045 60.7576 39.6045 L 60.7576 39.6045 C 60.7576 39.6045 69.6221 27.34 69.6221 21.9036 L 69.6221 21.9036 C 69.6221 11.5771 60.7576 11.4706 60.7576 11.4706 L 60.7576 11.4706 C 60.7576 11.4706 52.0339 11.5771 52.0339 21.9585 L 52.0339 21.9585 Z" stroke="#adc3db" stroke-width="2" fill="#ffffff"/>
				<path d="M 57.3103 20.2506 C 57.3103 18.3159 58.875 16.7318 60.828 16.7318 L 60.828 16.7318 C 62.762 16.7318 64.3456 18.3159 64.3456 20.2506 L 64.3456 20.2506 C 64.3456 22.2025 62.762 23.7695 60.828 23.7695 L 60.828 23.7695 C 58.875 23.7695 57.3103 22.2025 57.3103 20.2506 L 57.3103 20.2506 Z" stroke="#3268a9" stroke-width="2" fill="#ffffff"/>
			</g>
			<g>
				<path d="M 76.0339 57.9585 C 76.0339 63.0959 84.2474 74.8656 84.7214 75.5529 L 84.7214 75.5529 L 84.7386 75.5873 L 84.7386 75.5873 L 84.7386 75.5873 L 84.7386 75.5873 C 84.7576 75.5873 84.7576 75.6045 84.7576 75.6045 L 84.7576 75.6045 C 84.7576 75.6045 93.6221 63.34 93.6221 57.9036 L 93.6221 57.9036 C 93.6221 47.5771 84.7576 47.4706 84.7576 47.4706 L 84.7576 47.4706 C 84.7576 47.4706 76.0339 47.5771 76.0339 57.9585 L 76.0339 57.9585 Z" stroke="#adc3db" stroke-width="2" fill="#ffffff"/>
				<path d="M 81.3103 56.2506 C 81.3103 54.3159 82.875 52.7318 84.828 52.7318 L 84.828 52.7318 C 86.762 52.7318 88.3456 54.3159 88.3456 56.2506 L 88.3456 56.2506 C 88.3456 58.2025 86.762 59.7695 84.828 59.7695 L 84.828 59.7695 C 82.875 59.7695 81.3103 58.2025 81.3103 56.2506 L 81.3103 56.2506 Z" stroke="#3268a9" stroke-width="2" fill="#ffffff"/>
			</g>
			<g>
				<path d="M 127.0339 60.9585 C 127.0339 66.0959 135.2474 77.8656 135.7214 78.5529 L 135.7214 78.5529 L 135.7386 78.5873 L 135.7386 78.5873 L 135.7386 78.5873 L 135.7386 78.5873 C 135.7576 78.5873 135.7576 78.6045 135.7576 78.6045 L 135.7576 78.6045 C 135.7576 78.6045 144.6221 66.34 144.6221 60.9036 L 144.6221 60.9036 C 144.6221 50.5771 135.7576 50.4706 135.7576 50.4706 L 135.7576 50.4706 C 135.7576 50.4706 127.0339 50.5771 127.0339 60.9585 L 127.0339 60.9585 Z" stroke="#adc3db" stroke-width="2" fill="#ffffff"/>
				<path d="M 132.3103 59.2506 C 132.3103 57.3159 133.875 55.7318 135.828 55.7318 L 135.828 55.7318 C 137.762 55.7318 139.3456 57.3159 139.3456 59.2506 L 139.3456 59.2506 C 139.3456 61.2025 137.762 62.7695 135.828 62.7695 L 135.828 62.7695 C 133.875 62.7695 132.3103 61.2025 132.3103 59.2506 L 132.3103 59.2506 Z" stroke="#3268a9" stroke-width="2" fill="#ffffff"/>
			</g>
			<g>
				<path d="M 100.0339 30.9585 C 100.0339 36.0959 108.2474 47.8656 108.7214 48.5529 L 108.7214 48.5529 L 108.7386 48.5873 L 108.7386 48.5873 L 108.7386 48.5873 L 108.7386 48.5873 C 108.7576 48.5873 108.7576 48.6045 108.7576 48.6045 L 108.7576 48.6045 C 108.7576 48.6045 117.6221 36.34 117.6221 30.9036 L 117.6221 30.9036 C 117.6221 20.5771 108.7576 20.4706 108.7576 20.4706 L 108.7576 20.4706 C 108.7576 20.4706 100.0339 20.5771 100.0339 30.9585 L 100.0339 30.9585 Z" stroke="#adc3db" stroke-width="2" fill="#ffffff"/>
				<path d="M 105.3103 29.2506 C 105.3103 27.3159 106.875 25.7318 108.828 25.7318 L 108.828 25.7318 C 110.762 25.7318 112.3456 27.3159 112.3456 29.2506 L 112.3456 29.2506 C 112.3456 31.2025 110.762 32.7695 108.828 32.7695 L 108.828 32.7695 C 106.875 32.7695 105.3103 31.2025 105.3103 29.2506 L 105.3103 29.2506 Z" stroke="#3268a9" stroke-width="2" fill="#ffffff"/>
			</g>
		</g>
	</g>
</svg>