<?xml version="1.0" standalone="no"?>
<!-- Generator: Adobe Fireworks 10, Export SVG Extension by Aaron Beall (http://fireworks.abeall.com) . Version: 0.6.1  -->
<!DOCTYPE svg PUBLIC "-//W3C//DTD SVG 1.1//EN" "http://www.w3.org/Graphics/SVG/1.1/DTD/svg11.dtd">
<svg id="Untitled-Page%201" viewBox="0 0 430 274" style="background-color:#ffffff00" version="1.1"
	xmlns="http://www.w3.org/2000/svg" xmlns:xlink="http://www.w3.org/1999/xlink" xml:space="preserve"
	x="0px" y="0px" width="430px" height="274px"
>
	<g id="Layer%201">
		<g>
			<path d="M 2 33 L 428 33 L 428 275 L 2 275 L 2 33 Z" fill="#ffffff"/>
			<path d="M 427.8562 260.2119 L 427.8562 276 L 3.0753 276 L 3.0753 273.3162 C 14.8397 262.4565 31.8307 251.4419 54.6637 250.3706 C 79.2663 249.2183 88.8821 260.6458 108.564 259.478 C 152.3696 256.8904 153.3271 197.4399 196.8718 194.1182 C 222.4946 192.1682 233.915 211.8564 270.2732 211.7974 C 310.3865 211.7332 325.4553 187.7158 352.8477 188.2251 C 374.344 188.627 400.5266 204.0884 427.8562 260.2119 Z" fill="#064685"/>
			<path opacity="0.8" d="M 428 244.4077 L 428 276 L 0 276 L 1.2979 273.9624 C 55.198 197.8447 92.9263 176.8726 117.3394 178.0459 C 163.7373 180.28 173.2533 255.6475 236.2172 258.4065 C 272.3311 259.9922 290.948 236.1519 350.5183 234.2983 C 382.073 233.3179 409.1311 239.0073 428 244.4077 Z" fill="#f3f7fb"/>
			<g>
				<path d="M 43.5625 57 L 46.2813 57 L 46.2813 55 L 38.7344 55 L 38.7344 57 L 41.4531 57 L 41.4531 65 L 43.5625 65 L 43.5625 57 L 43.5625 57 Z" fill="#adc3db"/>
				<path d="M 49.875 57 L 50.4688 57 C 51.0938 57 51.5625 57.0781 51.875 57.2344 C 52.1719 57.3906 52.3281 57.625 52.3281 57.9688 C 52.3281 58.3281 52.1719 58.5938 51.875 58.75 C 51.5781 58.9219 51.125 59 50.5156 59 L 49.875 59 L 49.875 57 L 49.875 57 ZM 50.9219 61 L 53.1406 65 L 55.5 65 C 55.0625 64.3281 54.1406 62.8281 52.7188 60.5 C 53.2813 60.25 53.7031 59.9063 54.0156 59.4531 C 54.3125 59.0156 54.4688 58.5 54.4688 57.9219 C 54.4688 56.9531 54.1406 56.2188 53.5156 55.7344 C 52.8906 55.25 51.9063 55 50.5938 55 L 47.7656 55 L 47.7656 65 L 49.875 65 L 49.875 61 L 50.9219 61 L 50.9219 61 Z" fill="#adc3db"/>
				<path d="M 65.5 65 L 61.7969 55 L 59.2031 55 L 55.5 65 L 57.7813 65 L 58.5469 63 L 62.4375 63 L 63.2188 65 L 65.5 65 L 65.5 65 ZM 59.125 61 C 59.875 58.6406 60.3438 57.1563 60.5 56.5469 C 60.5313 56.7188 60.5938 56.9531 60.6875 57.2344 L 61.9063 61 L 59.125 61 L 59.125 61 Z" fill="#adc3db"/>
				<path d="M 68.8438 61 L 72.5469 61 L 72.5469 59 L 68.8438 59 L 68.8438 57 L 72.7969 57 L 72.7969 55 L 66.7656 55 L 66.7656 65 L 68.8438 65 L 68.8438 61 L 68.8438 61 Z" fill="#adc3db"/>
				<path d="M 76.8438 61 L 80.5469 61 L 80.5469 59 L 76.8438 59 L 76.8438 57 L 80.7969 57 L 80.7969 55 L 74.7656 55 L 74.7656 65 L 76.8438 65 L 76.8438 61 L 76.8438 61 Z" fill="#adc3db"/>
				<path d="M 84.9688 65 L 84.9688 55 L 82.8594 55 L 82.8594 65 L 84.9688 65 L 84.9688 65 Z" fill="#adc3db"/>
				<path d="M 93.1563 57.2031 C 93.5313 57.3281 93.9219 57.4844 94.3125 57.6563 L 95 55.7656 C 94 55.2656 93.0156 55 92.0469 55 C 91.0781 55 90.25 55.2031 89.5313 55.6094 C 88.8125 56.0156 88.25 56.6094 87.875 57.3594 C 87.5 58.125 87.3125 59.0156 87.3125 60.0156 C 87.3125 61.625 87.6875 62.8594 88.4688 63.7188 C 89.25 64.5781 90.375 65 91.8438 65 C 92.8594 65 93.7813 64.8125 94.625 64.4375 L 94.625 62.4688 C 93.6094 62.8281 92.75 63 92.0469 63 C 90.3438 63 89.5 62.0156 89.5 60.0313 C 89.5 59.0781 89.7188 58.3281 90.1563 57.7969 C 90.5938 57.2656 91.2188 57 92.0313 57 C 92.4063 57 92.7813 57.0781 93.1563 57.2031 L 93.1563 57.2031 Z" fill="#adc3db"/>
			</g>
			<g>
				<path d="M 148.375 60.5 C 148 60.0938 147.3281 59.7031 146.3438 59.2969 C 145.5938 59.0156 145.1094 58.8125 144.9219 58.6875 C 144.7188 58.5781 144.5781 58.4531 144.4844 58.3281 C 144.3906 58.2031 144.3438 58.0625 144.3438 57.8906 C 144.3438 57.6406 144.4531 57.4219 144.6875 57.25 C 144.9063 57.0938 145.2344 57 145.6719 57 C 146.0313 57 146.3906 57.0469 146.7656 57.1406 C 147.1406 57.2344 147.6094 57.375 148.1875 57.5938 L 148.875 55.7969 C 148.3438 55.5469 147.8281 55.3594 147.3438 55.2188 C 146.8438 55.0781 146.3281 55 145.7969 55 C 144.6875 55 143.8281 55.2656 143.2031 55.7969 C 142.5781 56.3281 142.2813 57.0469 142.2813 57.9531 C 142.2813 58.375 142.375 58.7344 142.5625 59.0469 C 142.75 59.3594 143.0156 59.6406 143.3438 59.875 C 143.6563 60.1094 144.1406 60.3594 144.7969 60.6094 C 145.4844 60.8906 145.9375 61.0781 146.1563 61.2031 C 146.375 61.3281 146.5469 61.4688 146.6719 61.5938 C 146.7813 61.7344 146.8438 61.8906 146.8438 62.0625 C 146.8438 62.375 146.7031 62.6094 146.4531 62.7656 C 146.1875 62.9219 145.8125 63 145.3125 63 C 144.9063 63 144.4531 62.9375 143.9531 62.8125 C 143.4531 62.6875 142.8594 62.4844 142.1563 62.1719 L 142.1563 64.3125 C 143 64.7813 143.9844 65 145.0938 65 C 146.2969 65 147.2344 64.7344 147.9063 64.1875 C 148.5781 63.6563 148.9219 62.9063 148.9219 61.9531 C 148.9219 61.3906 148.7344 60.9063 148.375 60.5 L 148.375 60.5 Z" fill="#adc3db"/>
				<path d="M 158.4844 56.2969 C 157.6719 55.4375 156.5156 55 155.0156 55 C 153.5 55 152.3438 55.4375 151.5313 56.2813 C 150.7188 57.1406 150.3125 58.375 150.3125 59.9844 C 150.3125 61.6094 150.7031 62.8438 151.5156 63.7031 C 152.3281 64.5781 153.4844 65 155 65 C 156.5 65 157.6563 64.5781 158.4688 63.7031 C 159.2813 62.8438 159.6875 61.6094 159.6875 60 C 159.6875 58.3906 159.2813 57.1563 158.4844 56.2969 L 158.4844 56.2969 ZM 153.1563 57.7656 C 153.5625 57.2656 154.1875 57 155.0156 57 C 156.6406 57 157.4688 58 157.4688 60 C 157.4688 62 156.6406 63 155 63 C 154.1719 63 153.5469 62.75 153.1406 62.25 C 152.7344 61.75 152.5313 61 152.5313 60 C 152.5313 59.0156 152.7344 58.2656 153.1563 57.7656 L 153.1563 57.7656 Z" fill="#adc3db"/>
				<path d="M 167.1563 57.2031 C 167.5313 57.3281 167.9219 57.4844 168.3125 57.6563 L 169 55.7656 C 168 55.2656 167.0156 55 166.0469 55 C 165.0781 55 164.25 55.2031 163.5313 55.6094 C 162.8125 56.0156 162.25 56.6094 161.875 57.3594 C 161.5 58.125 161.3125 59.0156 161.3125 60.0156 C 161.3125 61.625 161.6875 62.8594 162.4688 63.7188 C 163.25 64.5781 164.375 65 165.8438 65 C 166.8594 65 167.7813 64.8125 168.625 64.4375 L 168.625 62.4688 C 167.6094 62.8281 166.75 63 166.0469 63 C 164.3438 63 163.5 62.0156 163.5 60.0313 C 163.5 59.0781 163.7188 58.3281 164.1563 57.7969 C 164.5938 57.2656 165.2188 57 166.0313 57 C 166.4063 57 166.7813 57.0781 167.1563 57.2031 L 167.1563 57.2031 Z" fill="#adc3db"/>
				<path d="M 172.9688 65 L 172.9688 55 L 170.8594 55 L 170.8594 65 L 172.9688 65 L 172.9688 65 Z" fill="#adc3db"/>
				<path d="M 184.5 65 L 180.7969 55 L 178.2031 55 L 174.5 65 L 176.7813 65 L 177.5469 63 L 181.4375 63 L 182.2188 65 L 184.5 65 L 184.5 65 ZM 178.125 61 C 178.875 58.6406 179.3438 57.1563 179.5 56.5469 C 179.5313 56.7188 179.5938 56.9531 179.6875 57.2344 L 180.9063 61 L 178.125 61 L 178.125 61 Z" fill="#adc3db"/>
				<path d="M 192.0313 65 L 192.0313 63 L 187.875 63 L 187.875 55 L 185.7656 55 L 185.7656 65 L 192.0313 65 L 192.0313 65 Z" fill="#adc3db"/>
			</g>
			<g>
				<path d="M 245.3281 65 L 247.8125 57.1719 L 247.8594 57.1719 C 247.7969 58.4375 247.7656 59.2188 247.7656 59.5 L 247.7656 60.2656 L 247.7656 65 L 249.7344 65 L 249.7344 55 L 246.8906 55 L 244.4531 62.6406 L 244.4063 62.6406 L 242.125 55 L 239.2656 55 L 239.2656 65 L 241.1563 65 L 241.1563 60.3438 C 241.1563 59.8125 241.1094 58.75 241.0156 57.1563 L 241.0781 57.1563 L 243.375 65 L 245.3281 65 L 245.3281 65 Z" fill="#adc3db"/>
				<path d="M 259.9844 56.2969 C 259.1719 55.4375 258.0156 55 256.5156 55 C 255 55 253.8438 55.4375 253.0313 56.2813 C 252.2188 57.1406 251.8125 58.375 251.8125 59.9844 C 251.8125 61.6094 252.2031 62.8438 253.0156 63.7031 C 253.8281 64.5781 254.9844 65 256.5 65 C 258 65 259.1563 64.5781 259.9688 63.7031 C 260.7813 62.8438 261.1875 61.6094 261.1875 60 C 261.1875 58.3906 260.7813 57.1563 259.9844 56.2969 L 259.9844 56.2969 ZM 254.6563 57.7656 C 255.0625 57.2656 255.6875 57 256.5156 57 C 258.1406 57 258.9688 58 258.9688 60 C 258.9688 62 258.1406 63 256.5 63 C 255.6719 63 255.0469 62.75 254.6406 62.25 C 254.2344 61.75 254.0313 61 254.0313 60 C 254.0313 59.0156 254.2344 58.2656 254.6563 57.7656 L 254.6563 57.7656 Z" fill="#adc3db"/>
				<path d="M 263.2656 65 L 266.7969 65 C 267.8594 65 268.7031 64.7656 269.3281 64.2656 C 269.9531 63.7813 270.2656 63.0938 270.2656 62.2031 C 270.2656 61.5938 270.125 61.0938 269.8438 60.7188 C 269.5625 60.3438 269.1094 60.0938 268.4844 59.9531 L 268.4844 59.875 C 268.9531 59.8125 269.3281 59.5781 269.6094 59.1719 C 269.8906 58.7656 270.0313 58.2656 270.0313 57.6406 C 270.0313 56.7344 269.7188 56.0625 269.125 55.6406 C 268.5156 55.2188 267.5469 55 266.2031 55 L 263.2656 55 L 263.2656 65 L 263.2656 65 ZM 265.375 57 L 266.3281 57 C 266.8594 57 267.2344 57.0781 267.4844 57.2344 C 267.7188 57.3906 267.8438 57.625 267.8438 57.9688 C 267.8438 58.3438 267.7188 58.6094 267.5 58.7656 C 267.2813 58.9219 266.9219 59 266.4375 59 L 265.375 59 L 265.375 57 L 265.375 57 ZM 266.5156 61 C 267.5469 61 268.0625 61.3281 268.0625 61.9531 C 268.0625 62.3125 267.9375 62.5781 267.7031 62.75 C 267.4531 62.9219 267.0781 63 266.5781 63 L 265.375 63 L 265.375 61 L 266.5156 61 L 266.5156 61 Z" fill="#adc3db"/>
				<path d="M 274.4688 65 L 274.4688 55 L 272.3594 55 L 272.3594 65 L 274.4688 65 L 274.4688 65 Z" fill="#adc3db"/>
				<path d="M 283.5313 65 L 283.5313 63 L 279.375 63 L 279.375 55 L 277.2656 55 L 277.2656 65 L 283.5313 65 L 283.5313 65 Z" fill="#adc3db"/>
				<path d="M 291.1719 63 L 287.375 63 L 287.375 61 L 290.9219 61 L 290.9219 59 L 287.375 59 L 287.375 57 L 291.1719 57 L 291.1719 55 L 285.2656 55 L 285.2656 65 L 291.1719 65 L 291.1719 63 L 291.1719 63 Z" fill="#adc3db"/>
			</g>
			<g>
				<path d="M 328.1719 63 L 324.375 63 L 324.375 61 L 327.9219 61 L 327.9219 59 L 324.375 59 L 324.375 57 L 328.1719 57 L 328.1719 55 L 322.2656 55 L 322.2656 65 L 328.1719 65 L 328.1719 63 L 328.1719 63 Z" fill="#adc3db"/>
				<path d="M 334.7969 59.9688 L 337.7656 55 L 335.4844 55 L 333.5313 58.5938 L 331.5313 55 L 329.2031 55 L 332.1406 59.8438 L 329 65 L 331.2656 65 L 333.4219 61.2188 L 335.5781 65 L 338 65 L 334.7969 59.9688 L 334.7969 59.9688 Z" fill="#adc3db"/>
				<path d="M 341.375 57 L 342.4063 57 C 343.0313 57 343.4844 57.0938 343.7813 57.25 C 344.0625 57.4063 344.2188 57.6563 344.2188 57.9844 C 344.2188 58.3281 344.0313 58.5781 343.6875 58.75 C 343.3438 58.9219 342.8125 59 342.125 59 L 341.375 59 L 341.375 57 L 341.375 57 ZM 345.375 55.7344 C 344.7188 55.25 343.7813 55 342.5469 55 L 339.2656 55 L 339.2656 65 L 341.375 65 L 341.375 61 L 342.3281 61 C 343.6094 61 344.6094 60.7344 345.3125 60.2031 C 346 59.6719 346.3594 58.9063 346.3594 57.9063 C 346.3594 56.9375 346.0313 56.2188 345.375 55.7344 L 345.375 55.7344 Z" fill="#adc3db"/>
				<path d="M 354.1719 63 L 350.375 63 L 350.375 61 L 353.9219 61 L 353.9219 59 L 350.375 59 L 350.375 57 L 354.1719 57 L 354.1719 55 L 348.2656 55 L 348.2656 65 L 354.1719 65 L 354.1719 63 L 354.1719 63 Z" fill="#adc3db"/>
				<path d="M 358.375 57 L 358.9688 57 C 359.5938 57 360.0625 57.0781 360.375 57.2344 C 360.6719 57.3906 360.8281 57.625 360.8281 57.9688 C 360.8281 58.3281 360.6719 58.5938 360.375 58.75 C 360.0781 58.9219 359.625 59 359.0156 59 L 358.375 59 L 358.375 57 L 358.375 57 ZM 359.4219 61 L 361.6406 65 L 364 65 C 363.5625 64.3281 362.6406 62.8281 361.2188 60.5 C 361.7813 60.25 362.2031 59.9063 362.5156 59.4531 C 362.8125 59.0156 362.9688 58.5 362.9688 57.9219 C 362.9688 56.9531 362.6406 56.2188 362.0156 55.7344 C 361.3906 55.25 360.4063 55 359.0938 55 L 356.2656 55 L 356.2656 65 L 358.375 65 L 358.375 61 L 359.4219 61 L 359.4219 61 Z" fill="#adc3db"/>
				<path d="M 367.4688 65 L 367.4688 55 L 365.3594 55 L 365.3594 65 L 367.4688 65 L 367.4688 65 Z" fill="#adc3db"/>
				<path d="M 376.1719 63 L 372.375 63 L 372.375 61 L 375.9219 61 L 375.9219 59 L 372.375 59 L 372.375 57 L 376.1719 57 L 376.1719 55 L 370.2656 55 L 370.2656 65 L 376.1719 65 L 376.1719 63 L 376.1719 63 Z" fill="#adc3db"/>
				<path d="M 386.75 55 L 384.8438 55 L 384.8438 59.7344 C 384.8438 60.2656 384.875 61.1875 384.9375 62.4844 L 384.8906 62.4844 L 380.875 55 L 378.2656 55 L 378.2656 65 L 380.1563 65 L 380.1563 60.2969 C 380.1563 59.7344 380.1094 58.7813 380.0313 57.4375 L 380.0938 57.4375 L 384.1094 65 L 386.75 65 L 386.75 55 L 386.75 55 Z" fill="#adc3db"/>
				<path d="M 394.6563 57.2031 C 395.0313 57.3281 395.4219 57.4844 395.8125 57.6563 L 396.5 55.7656 C 395.5 55.2656 394.5156 55 393.5469 55 C 392.5781 55 391.75 55.2031 391.0313 55.6094 C 390.3125 56.0156 389.75 56.6094 389.375 57.3594 C 389 58.125 388.8125 59.0156 388.8125 60.0156 C 388.8125 61.625 389.1875 62.8594 389.9688 63.7188 C 390.75 64.5781 391.875 65 393.3438 65 C 394.3594 65 395.2813 64.8125 396.125 64.4375 L 396.125 62.4688 C 395.1094 62.8281 394.25 63 393.5469 63 C 391.8438 63 391 62.0156 391 60.0313 C 391 59.0781 391.2188 58.3281 391.6563 57.7969 C 392.0938 57.2656 392.7188 57 393.5313 57 C 393.9063 57 394.2813 57.0781 394.6563 57.2031 L 394.6563 57.2031 Z" fill="#adc3db"/>
				<path d="M 404.1719 63 L 400.375 63 L 400.375 61 L 403.9219 61 L 403.9219 59 L 400.375 59 L 400.375 57 L 404.1719 57 L 404.1719 55 L 398.2656 55 L 398.2656 65 L 404.1719 65 L 404.1719 63 L 404.1719 63 Z" fill="#adc3db"/>
			</g>
			<g>
				<path d="M 2 2 L 428 2 L 428 31 L 2 31 L 2 2 Z" fill="#f3f7fb"/>
				<g>
					<path d="M 16.8 21 L 12 16.2858 M 16.8 11.5714 L 12 16.2858 " stroke="#acc2da" stroke-width="2" fill="none"/>
					<path d="M 12.8 16.2858 L 23.2 16.2858 " stroke="#acc2da" stroke-width="2" fill="none"/>
					<path d="M 38.4 21 L 43.2 16.2858 M 38.4 11.5714 L 43.2 16.2858 " stroke="#acc2da" stroke-width="2" fill="none"/>
					<path d="M 42.4 16.2858 L 32 16.2858 " stroke="#acc2da" stroke-width="2" fill="none"/>
					<path id="Ellipse" d="M 62.8866 18.0667 C 62.2064 19.6752 60.654 20.855 58.7726 20.9877 C 56.1127 21.1753 53.8024 19.1987 53.6125 16.573 C 53.4225 13.9471 55.4247 11.6666 58.0846 11.479 C 59.9124 11.3501 61.5752 12.2432 62.4982 13.6667 " stroke="#acc2da" stroke-width="2" fill="none"/>
					<path d="M 64 10 L 64 15.1333 L 58.8 15.1333 L 64 10 Z" fill="#acc2da"/>
				</g>
			</g>
			<path d="M 6 1 C 3.2385 1 1 3.2385 1 6 L 1 286 L 429 286 L 429 6 C 429 3.2385 426.7615 1 424 1 L 6 1 Z" stroke="#366da7" stroke-width="2" fill="none"/>
			<g>
				<path opacity="0.4" d="M 27 121 C 27 142.5396 44.4606 160 66 160 L 66 148.5 C 50.812 148.5 38.5 136.188 38.5 121 C 38.5 105.8119 50.812 93.5 66 93.5 C 81.188 93.5 93.5 105.8119 93.5 121 C 93.5 124.4192 92.8752 127.6948 91.735 130.7148 L 102.5 134.7749 C 104.1168 130.4924 105 125.8486 105 121 C 105 99.4606 87.5394 82 66 82 C 44.4606 82 27 99.4606 27 121 Z" fill="#adc3db"/>
				<g>
					<path id="Ellipse2" d="M 27 121 C 27 99.4606 44.4606 82 66 82 C 87.5394 82 105 99.4606 105 121 C 105 142.5396 87.5394 160 66 160 C 44.4606 160 27 142.5396 27 121 Z" stroke="#adc3db" stroke-width="2" fill="none"/>
					<path id="Ellipse3" d="M 38.5 121 C 38.5 105.8119 50.812 93.5 66 93.5 C 81.188 93.5 93.5 105.8119 93.5 121 C 93.5 136.188 81.188 148.5 66 148.5 C 50.812 148.5 38.5 136.188 38.5 121 Z" stroke="#adc3db" stroke-width="2" fill="#ffffff"/>
				</g>
				<g>
					<path d="M 72.3125 130 L 74 130 L 65.5625 109 L 64.6094 109 L 56 130 L 57.6563 130 L 60.6406 122 L 69.3438 122 L 72.3125 130 L 72.3125 130 ZM 64.1875 113.7188 C 64.5 113 64.7813 112.1875 65.0469 111.2969 C 65.3906 112.3281 65.6719 113.125 65.9219 113.6875 L 68.8438 121 L 61.1875 121 L 64.1875 113.7188 L 64.1875 113.7188 Z" fill="#064685"/>
				</g>
			</g>
			<g>
				<path opacity="0.4" d="M 128 121 C 128 142.5396 145.4607 160 167 160 L 167 148.5 C 151.812 148.5 139.5 136.188 139.5 121 C 139.5 105.8119 151.812 93.5 167 93.5 C 178.7688 93.5 188.8101 100.89 192.735 111.2849 L 203.5 107.225 C 197.9341 92.4824 183.6909 82 167 82 C 145.4607 82 128 99.4606 128 121 Z" fill="#adc3db"/>
				<g>
					<path id="Ellipse4" d="M 128 121 C 128 99.4606 145.4607 82 167 82 C 188.5393 82 206 99.4606 206 121 C 206 142.5396 188.5393 160 167 160 C 145.4607 160 128 142.5396 128 121 Z" stroke="#adc3db" stroke-width="2" fill="none"/>
					<path id="Ellipse5" d="M 139.5 121 C 139.5 105.8119 151.812 93.5 167 93.5 C 182.188 93.5 194.5 105.8119 194.5 121 C 194.5 136.188 182.188 148.5 167 148.5 C 151.812 148.5 139.5 136.188 139.5 121 Z" stroke="#adc3db" stroke-width="2" fill="#ffffff"/>
				</g>
				<g>
					<path d="M 152.0625 130 L 158.6875 130 C 161.1094 130 162.9844 129.4688 164.3125 128.375 C 165.625 127.2813 166.2969 125.7188 166.2969 123.6875 C 166.2969 122.1875 165.8906 121 165.0781 120.1563 C 164.2656 119.3125 162.9844 118.7656 161.2656 118.5 L 161.2656 118.4219 C 162.7344 118.2031 163.8438 117.7188 164.6094 116.9375 C 165.375 116.1719 165.7656 115.2031 165.7656 114.0469 C 165.7656 112.3594 165.125 111.1094 163.875 110.2656 C 162.625 109.4219 160.6563 109 158 109 L 152.0625 109 L 152.0625 130 L 152.0625 130 ZM 153.5625 110 L 157.9375 110 C 160 110 161.5625 110.3125 162.6094 110.9375 C 163.6406 111.5625 164.1719 112.5781 164.1719 113.9688 C 164.1719 115.3594 163.7031 116.375 162.7813 117.0313 C 161.8438 117.6875 160.375 118 158.3438 118 L 153.5625 118 L 153.5625 110 L 153.5625 110 ZM 158.3438 119 C 162.5625 119 164.6875 120.5938 164.6875 123.7656 C 164.6875 127.2656 162.6719 129 158.6719 129 L 153.5625 129 L 153.5625 119 L 158.3438 119 L 158.3438 119 Z" fill="#064685"/>
					<path d="M 177.0938 112.6406 L 175.8906 112.6406 L 175.8906 119 L 169.5625 119 L 169.5625 120 L 175.8906 120 L 175.8906 126.3281 L 177.0938 126.3281 L 177.0938 120 L 183.4531 120 L 183.4531 119 L 177.0938 119 L 177.0938 112.6406 L 177.0938 112.6406 Z" fill="#064685"/>
				</g>
			</g>
			<g>
				<path opacity="0.4" d="M 226 121 C 226 142.5396 243.4607 160 265 160 L 265 148.5 C 249.812 148.5 237.5 136.188 237.5 121 C 237.5 111.2831 242.5371 102.7416 250.145 97.85 L 243.9351 88.1699 C 233.146 95.1072 226 107.22 226 121 Z" fill="#adc3db"/>
				<g>
					<path id="Ellipse6" d="M 226 121 C 226 99.4606 243.4607 82 265 82 C 286.5393 82 304 99.4606 304 121 C 304 142.5396 286.5393 160 265 160 C 243.4607 160 226 142.5396 226 121 Z" stroke="#adc3db" stroke-width="2" fill="none"/>
					<path id="Ellipse7" d="M 237.5 121 C 237.5 105.8119 249.812 93.5 265 93.5 C 280.188 93.5 292.5 105.8119 292.5 121 C 292.5 136.188 280.188 148.5 265 148.5 C 249.812 148.5 237.5 136.188 237.5 121 Z" stroke="#adc3db" stroke-width="2" fill="#ffffff"/>
				</g>
				<g>
					<path d="M 265.4375 111.1719 L 266.0469 109.875 C 264.3594 109.2969 262.4531 109 260.3281 109 C 258.2344 109 256.3906 109.4375 254.8125 110.2969 C 253.2344 111.1563 252.0313 112.375 251.1875 113.9531 C 250.3438 115.5469 249.9219 117.375 249.9219 119.4531 C 249.9219 122.7813 250.7969 125.375 252.5625 127.2188 C 254.3125 129.0781 256.7344 130 259.8125 130 C 261.9688 130 263.7656 129.8281 265.2188 129.4531 L 265.2188 128.3125 C 263.6719 128.7813 261.9844 129 260.1563 129 C 257.3906 129 255.2656 128.1719 253.7813 126.5156 C 252.2813 124.8594 251.5469 122.5156 251.5469 119.5 C 251.5469 116.5625 252.3281 114.2344 253.9063 112.5469 C 255.4844 110.8594 257.6563 110 260.4063 110 C 262.1563 110 263.8281 110.3906 265.4375 111.1719 L 265.4375 111.1719 Z" fill="#064685"/>
					<path d="M 276.0938 112.6406 L 274.8906 112.6406 L 274.8906 119 L 268.5625 119 L 268.5625 120 L 274.8906 120 L 274.8906 126.3281 L 276.0938 126.3281 L 276.0938 120 L 282.4531 120 L 282.4531 119 L 276.0938 119 L 276.0938 112.6406 L 276.0938 112.6406 Z" fill="#064685"/>
				</g>
			</g>
			<g>
				<path opacity="0.4" d="M 324.8999 126.6201 C 327.6246 145.4961 343.8694 160 363.5 160 L 363.5 148.5 C 349.6577 148.5 338.2058 138.2754 336.2849 124.9648 L 324.8999 126.6201 Z" fill="#adc3db"/>
				<g>
					<path id="Ellipse8" d="M 324.5 121 C 324.5 99.4606 341.9607 82 363.5 82 C 385.0393 82 402.5 99.4606 402.5 121 C 402.5 142.5396 385.0393 160 363.5 160 C 341.9607 160 324.5 142.5396 324.5 121 Z" stroke="#adc3db" stroke-width="2" fill="none"/>
					<path id="Ellipse9" d="M 336 121 C 336 105.8119 348.312 93.5 363.5 93.5 C 378.688 93.5 391 105.8119 391 121 C 391 136.188 378.688 148.5 363.5 148.5 C 348.312 148.5 336 136.188 336 121 Z" stroke="#adc3db" stroke-width="2" fill="#ffffff"/>
				</g>
				<g>
					<path d="M 369.9375 111.1719 L 370.5469 109.875 C 368.8594 109.2969 366.9531 109 364.8281 109 C 362.7344 109 360.8906 109.4375 359.3125 110.2969 C 357.7344 111.1563 356.5313 112.375 355.6875 113.9531 C 354.8438 115.5469 354.4219 117.375 354.4219 119.4531 C 354.4219 122.7813 355.2969 125.375 357.0625 127.2188 C 358.8125 129.0781 361.2344 130 364.3125 130 C 366.4688 130 368.2656 129.8281 369.7188 129.4531 L 369.7188 128.3125 C 368.1719 128.7813 366.4844 129 364.6563 129 C 361.8906 129 359.7656 128.1719 358.2813 126.5156 C 356.7813 124.8594 356.0469 122.5156 356.0469 119.5 C 356.0469 116.5625 356.8281 114.2344 358.4063 112.5469 C 359.9844 110.8594 362.1563 110 364.9063 110 C 366.6563 110 368.3281 110.3906 369.9375 111.1719 L 369.9375 111.1719 Z" fill="#064685"/>
				</g>
			</g>
		</g>
		<path d="M 430 32 L 1 32 " stroke="#376ea8" stroke-width="2" fill="none"/>
	</g>
</svg>