<?xml version="1.0" standalone="no"?>
<!-- Generator: Adobe Fireworks 10, Export SVG Extension by Aaron Beall (http://fireworks.abeall.com) . Version: 0.6.1  -->
<!DOCTYPE svg PUBLIC "-//W3C//DTD SVG 1.1//EN" "http://www.w3.org/Graphics/SVG/1.1/DTD/svg11.dtd">
<svg id="Untitled-Page%201" viewBox="0 0 70 85" style="background-color:#ffffff00" version="1.1"
	xmlns="http://www.w3.org/2000/svg" xmlns:xlink="http://www.w3.org/1999/xlink" xml:space="preserve"
	x="0px" y="0px" width="70px" height="85px"
>
	<g id="Layer%201">
		<g>
			<path d="M 57.2244 16 C 51.8411 16 47.3549 19.585 45.9788 24.9502 C 43.4985 16.8884 37.1498 16.0061 34.501 16.0061 C 31.8531 16.0061 25.5067 16.8884 23.0217 24.9482 C 21.6451 19.5879 17.1584 16.0061 11.7766 16.0061 C 5.1729 16.0061 0 20.7354 0 26.7717 C 0 29.4412 0.6586 31.5723 1.4543 33.8843 L 10.4207 59.2832 C 13.4229 67.7068 19.5393 68.9648 22.9177 68.9648 C 28.217 68.9648 32.3468 66.2458 34.5002 61.4277 C 36.6558 66.2676 40.7858 69 46.0828 69 C 49.4569 69 55.5671 67.74 58.5846 59.2856 L 67.6008 33.7998 L 67.6711 33.5894 C 67.7739 33.2632 67.8779 32.9565 67.9761 32.6655 C 68.4562 31.2429 69 29.6299 69 27.6536 C 69 20.9014 64.0476 16 57.2244 16 L 57.2244 16 ZM 61.4744 31.6252 L 52.4585 57.1108 C 51.3582 60.1943 49.5271 62.4895 46.0828 62.4895 C 42.8555 62.4895 40.95 60.6885 39.998 57.6018 L 34.573 40.6401 L 34.4257 40.6401 L 29.0035 57.6018 C 28.05 60.6887 26.144 62.4541 22.9177 62.4541 C 19.4724 62.4541 17.6404 60.1777 16.5413 57.0942 L 7.599 31.7632 C 6.8657 29.6331 6.4995 28.3149 6.4995 26.7715 C 6.4995 24.4209 8.6997 22.5166 11.7766 22.5166 C 14.3425 22.5166 16.1748 24.2109 16.7614 26.7075 L 22.8455 46.9124 L 22.9911 46.9124 L 29.1484 27.1523 C 29.9564 24.2896 31.4216 22.5166 34.501 22.5166 C 37.5789 22.5166 39.0444 24.2864 39.8506 27.1494 L 46.0085 46.9124 L 46.1538 46.9124 L 52.2401 26.7075 C 52.8258 24.2109 54.6575 22.5105 57.2244 22.5105 C 60.3013 22.5105 62.5005 24.4219 62.5005 27.6536 C 62.5005 28.8276 61.9858 30.0073 61.4744 31.6252 L 61.4744 31.6252 Z" fill="#3192e7"/>
		</g>
	</g>
</svg>