<?xml version="1.0" standalone="no"?>
<!-- Generator: Adobe Fireworks 10, Export SVG Extension by Aaron Beall (http://fireworks.abeall.com) . Version: 0.6.1  -->
<!DOCTYPE svg PUBLIC "-//W3C//DTD SVG 1.1//EN" "http://www.w3.org/Graphics/SVG/1.1/DTD/svg11.dtd">
<svg id="Untitled-Page%201" viewBox="0 0 70 85" style="background-color:#ffffff00" version="1.1"
	xmlns="http://www.w3.org/2000/svg" xmlns:xlink="http://www.w3.org/1999/xlink" xml:space="preserve"
	x="0px" y="0px" width="70px" height="85px"
>
	<g id="Layer%201">
		<g>
			<path d="M 31.1401 11.0251 L 31.1401 11.0251 Z" stroke="#e9fa32" stroke-width="1" fill="none"/>
			<path d="M 19.414 27.1631 L 19.414 27.1631 Z" stroke="#e9fa32" stroke-width="1" fill="none"/>
			<path d="M 43.3722 77.8345 C 50.3841 77.8345 57.3316 75.3411 59.6298 72.3196 L 60.0901 71.7144 L 55.7438 58.8457 C 55.7037 58.7266 55.5919 58.6465 55.4661 58.6465 L 54.6461 58.6465 L 54.274 58.6465 L 45.7563 58.6465 C 45.6248 58.6465 45.5059 58.5625 45.4725 58.4358 C 45.3595 58.0066 45.2919 57.4817 45.2815 56.8335 L 45.2815 41.0942 C 45.2815 40.9324 45.4126 40.8015 45.5746 40.8015 L 56.9986 40.8015 C 57.1605 40.8015 57.2917 40.6702 57.2917 40.5085 L 57.2917 24.407 C 57.2917 24.2454 57.1605 24.1145 56.9986 24.1145 L 45.6236 24.1145 C 45.4617 24.1145 45.3306 23.9832 45.3306 23.8215 L 45.3306 8.1274 C 45.3306 7.9658 45.1993 7.8345 45.0374 7.8345 L 36.1396 7.8345 L 33.0295 7.8345 L 25.0889 7.8345 C 23.6623 7.8345 22.0161 8.8916 21.7754 10.8506 C 20.7795 18.9519 17.06 23.8118 10.0703 26.1458 L 9.2904 26.4055 C 9.1707 26.4453 9.0901 26.5574 9.0901 26.6833 L 9.0901 40.5085 C 9.0901 40.6702 9.2213 40.8015 9.3832 40.8015 L 14.8132 40.8015 L 14.8132 40.8015 L 16.5219 40.8015 C 16.5219 40.8015 16.5219 53.7065 16.5219 57.8293 C 16.5219 71.4229 25.9469 77.8345 43.3722 77.8345 ZM 56.7333 71.2644 C 54.5451 73.3665 50.0543 74.9275 45.7502 75.0002 C 45.5876 75.0029 45.4282 75.0044 45.268 75.0044 L 45.2667 75.0044 C 31.1097 75.0037 27.3325 64.2085 27.3325 57.8293 L 27.3325 38.2275 C 27.3325 38.0657 27.2012 37.9348 27.0392 37.9348 L 20.1938 37.9348 C 20.0319 37.9348 19.9006 37.8037 19.9006 37.6416 L 19.9006 28.7124 C 19.9006 28.593 19.9754 28.4866 20.0869 28.4431 C 27.4035 25.5979 31.4894 19.9446 32.5642 11.2004 C 32.6241 10.7146 33.0253 10.7014 33.0295 10.7014 L 42.1674 10.7014 C 42.3293 10.7014 42.4607 10.8323 42.4607 10.9941 L 42.4607 26.6885 C 42.4607 26.8501 42.5919 26.981 42.7538 26.981 L 54.1287 26.981 C 54.2906 26.981 54.4219 27.1123 54.4219 27.2742 L 54.4219 37.6416 C 54.4219 37.8037 54.2906 37.9348 54.1287 37.9348 L 42.7047 37.9348 C 42.5428 37.9348 42.4115 38.0657 42.4115 38.2275 L 42.4119 56.8564 C 42.4792 61.0513 44.5114 63.1772 48.4522 63.1772 C 50.0402 63.1772 51.8588 62.8086 53.5194 62.175 C 53.6746 62.1155 53.8459 62.1943 53.899 62.3521 L 56.8049 70.9568 C 56.8416 71.0652 56.8158 71.1853 56.7333 71.2644 Z" fill="#38465e"/>
		</g>
	</g>
</svg>