<?xml version="1.0" standalone="no"?>
<!-- Generator: Adobe Fireworks 10, Export SVG Extension by Aaron Beall (http://fireworks.abeall.com) . Version: 0.6.1  -->
<!DOCTYPE svg PUBLIC "-//W3C//DTD SVG 1.1//EN" "http://www.w3.org/Graphics/SVG/1.1/DTD/svg11.dtd">
<svg id="Untitled-Page%201" viewBox="0 0 70 85" style="background-color:#ffffff00" version="1.1"
	xmlns="http://www.w3.org/2000/svg" xmlns:xlink="http://www.w3.org/1999/xlink" xml:space="preserve"
	x="0px" y="0px" width="70px" height="85px"
>
	<g id="Layer%201">
		<g>
			<path d="M 62.1052 14.9121 C 61.0596 14.9121 60.0168 14.9094 58.9725 14.9094 C 56.4958 14.9041 54.2106 16.7681 52.4624 18.2461 C 50.7605 19.6855 49.3022 21.4302 47.9102 23.1626 C 47.411 21.8145 46.7544 20.4902 46.0732 19.281 C 45.1808 17.5566 43.4297 15.894 41.4697 15.4922 C 40.4771 15.2869 39.3647 15.3872 38.3569 15.3872 C 37.4829 15.3843 35.0012 15.3872 35.0012 15.3872 C 35.0012 15.3872 32.5164 15.3843 31.6436 15.3872 C 30.6345 15.3872 29.5249 15.2869 28.531 15.4922 C 26.5708 15.894 24.8199 17.5566 23.928 19.281 C 23.2461 20.4902 22.589 21.8145 22.0911 23.1626 C 20.699 21.4302 19.2402 19.6855 17.5383 18.2461 C 15.7894 16.7681 13.5062 14.9041 11.0273 14.9094 C 9.9832 14.9094 8.939 14.9121 7.8948 14.9121 C 6.4028 14.9141 4.9131 14.9163 3.4199 14.9189 C 2.3335 14.9238 -0.0723 14.6423 0.4973 16.3823 C 0.6351 16.8037 1.1213 17.1819 1.397 17.5322 C 1.7109 17.9336 2.0251 18.3384 2.2971 18.7695 C 2.731 19.4526 3.1519 20.1519 3.5591 20.855 C 4.537 22.5535 5.3613 24.3452 6.3325 26.0527 C 8.47 29.8193 10.7559 33.4988 13.5178 36.8594 C 15.5581 39.3379 18.0217 41.8403 21.0703 43.0703 C 18.769 47.2793 16.4768 51.4944 14.1833 55.7068 C 12.1963 59.3499 10.2104 62.9741 8.116 66.5586 C 8.0153 66.7336 7.9105 66.905 7.8162 67.0806 C 7.5414 67.5908 7.1481 68.3042 7.1509 68.8911 C 7.1531 70.0549 8.908 70.0891 9.7483 70.0947 C 10.6539 70.1001 11.5625 70.0757 12.469 70.0669 C 14.0442 70.0493 15.6201 70.0291 17.1946 70.0134 C 18.1271 70.0029 19.075 70.0391 20.0033 69.9517 C 22.3658 69.728 24.5264 68.5659 25.9207 66.6616 C 26.3726 66.0422 30.6084 59.2056 32.3228 56.4434 C 32.9702 55.3977 35.0012 52.2725 35.0012 52.2725 C 35.0012 52.2725 37.0298 55.3977 37.6787 56.4434 C 39.3916 59.2056 43.6289 66.0422 44.08 66.6616 C 45.4756 68.5659 47.634 69.728 49.9973 69.9517 C 50.9264 70.0391 51.8728 70.0029 52.8054 70.0134 C 54.3793 70.0291 55.9552 70.0493 57.5317 70.0669 C 58.4381 70.0757 59.3459 70.1001 60.2532 70.0947 C 61.0913 70.0891 62.8491 70.0549 62.8503 68.8911 C 62.854 68.3042 62.4619 67.5908 62.1831 67.0806 C 62.0879 66.905 61.9846 66.7336 61.8843 66.5586 C 59.7916 62.9741 57.8052 59.3499 55.8193 55.7068 C 53.5229 51.4944 51.2307 47.2793 48.9275 43.0703 C 51.9775 41.8403 54.4413 39.3379 56.4812 36.8594 C 59.2461 33.4988 61.5294 29.8193 63.668 26.0527 C 64.6379 24.3452 65.4623 22.5535 66.4424 20.855 C 66.8494 20.1519 67.2688 19.4526 67.7041 18.7695 C 67.9749 18.3384 68.2896 17.9336 68.603 17.5322 C 68.8812 17.1819 69.364 16.8037 69.5039 16.3823 C 70.0714 14.6423 67.6692 14.9238 66.5828 14.9189 C 65.089 14.9163 63.5972 14.9141 62.1052 14.9121 Z" fill="#f9c638"/>
			<path d="M 40.1768 24.603 C 40.4076 24.5688 40.6085 24.5337 40.6534 24.5229 C 40.8745 24.4783 41.0922 24.4138 41.3 24.3386 C 41.8732 24.1421 42.2266 23.8792 42.4807 23.6792 C 42.6749 23.5334 42.821 23.3682 42.8713 23.2664 C 41.488 23.2915 40.4585 23.2839 39.7781 23.2319 C 39.5925 23.2041 39.4575 23.6758 39.3687 24.6279 C 39.3593 24.7012 39.8049 24.6531 40.1768 24.603 L 40.1768 24.603 Z" fill="#2a2d2c"/>
			<path d="M 36.3762 31.2573 L 36.374 31.2573 L 36.377 31.2573 L 36.3762 31.2573 ZM 33.4192 31.2573 L 33.4187 31.2573 L 33.415 31.2573 L 33.4192 31.2573 ZM 33.1947 30.9478 C 33.1775 30.968 33.1678 30.9912 33.1678 31.0181 C 33.1678 31.0439 33.1823 31.0757 33.207 31.0952 C 33.2726 31.1516 33.3401 31.21 33.4187 31.2573 C 33.8215 31.5327 34.3168 31.6777 34.8953 31.6855 C 35.4841 31.6777 35.9512 31.5413 36.3762 31.2573 C 36.4492 31.2114 36.5249 31.1597 36.5972 31.0952 C 36.6497 31.0518 36.6738 30.9856 36.6357 30.9414 C 36.5972 30.9001 36.5297 30.8879 36.459 30.938 C 36.3933 30.9912 36.3271 31.0417 36.2611 31.0845 L 36.259 31.0845 C 35.8685 31.3442 35.4373 31.4683 34.8953 31.4771 C 34.3635 31.4683 33.9041 31.3359 33.5364 31.0852 L 33.5328 31.0845 C 33.4668 31.0405 33.4063 30.9883 33.3469 30.938 C 33.3015 30.9001 33.2346 30.9014 33.1947 30.9478 Z" fill="#2a2d2c"/>
			<path d="M 39.2546 30.0396 L 39.2413 30.0054 L 39.2572 30.04 L 39.2546 30.0396 ZM 42.5117 26.2351 C 42.3506 25.9204 42.1735 25.6921 41.9834 25.5547 C 41.3704 25.1086 40.4385 25.105 39.884 25.6414 C 39.6259 25.8916 39.4371 26.1958 39.2931 26.5225 C 38.9714 27.2612 38.7312 28.0989 38.7842 28.9131 C 38.8109 29.281 38.9404 29.6626 39.2036 29.9316 C 39.5183 30.261 39.9722 30.3906 40.4102 30.478 C 40.8447 30.5659 41.3518 30.6333 41.7583 30.4209 C 42.2266 30.1724 42.4236 29.6042 42.5531 29.1387 C 42.7175 28.5391 42.8713 27.8977 42.8087 27.2705 C 42.7742 26.925 42.6702 26.5474 42.5117 26.2351 Z" fill="#2a2d2c"/>
			<path d="M 40.9785 27.7539 C 41.3256 27.6394 41.5524 27.575 41.6521 27.5676 C 41.1597 27.6035 40.9055 27.407 40.86 26.9846 L 40.7684 26.105 C 40.741 26.6702 40.6776 27.0313 40.55 27.2178 C 40.4667 27.3337 40.3972 27.4146 40.3137 27.4502 L 40.0217 27.541 C 39.9048 27.575 39.7842 27.6135 39.6863 27.6135 C 40.223 27.5676 40.5128 27.7024 40.5577 27.9946 C 40.6333 28.4194 40.6776 28.6963 40.7133 28.8311 C 40.7229 28.1748 40.814 27.8203 40.9785 27.7539 L 40.9785 27.7539 Z" fill="#ffffff"/>
			<path d="M 41.6342 29.0613 L 41.5798 28.5171 C 41.5612 28.8662 41.5253 29.0891 41.4517 29.2065 C 41.407 29.271 41.3518 29.3237 41.2961 29.353 L 41.1238 29.4043 C 41.0503 29.4219 40.9785 29.4492 40.9146 29.4492 C 41.2402 29.4219 41.4241 29.502 41.46 29.6816 C 41.4965 29.9424 41.5337 30.1208 41.5524 30.1926 C 41.5524 29.7886 41.6074 29.5757 41.7156 29.5386 C 41.9263 29.4673 42.062 29.4219 42.1252 29.4219 C 41.8245 29.4414 41.6616 29.3149 41.6342 29.0613 L 41.6342 29.0613 Z" fill="#ffffff"/>
			<path d="M 30.4087 24.6279 C 30.3143 23.6758 30.1807 23.2041 29.9974 23.2319 C 29.3149 23.2839 28.2872 23.2915 26.9021 23.2664 C 26.9517 23.3682 27.1011 23.5334 27.292 23.6792 C 27.5481 23.8792 27.8982 24.1421 28.4731 24.3386 C 28.6846 24.4138 28.9001 24.4783 29.1193 24.5229 C 29.1646 24.5337 29.3672 24.5688 29.5973 24.603 C 29.9678 24.6531 30.4136 24.7012 30.4087 24.6279 L 30.4087 24.6279 Z" fill="#2a2d2c"/>
			<path d="M 30.5182 30.04 L 30.5326 30.0054 L 30.5203 30.0396 L 30.5182 30.04 ZM 26.9655 27.2705 C 26.9021 27.8977 27.0549 28.5391 27.2217 29.1387 C 27.3491 29.6042 27.5461 30.1724 28.0151 30.4209 C 28.4229 30.6333 28.9312 30.5659 29.3624 30.478 C 29.7998 30.3906 30.2551 30.261 30.5706 29.9316 C 30.8336 29.6626 30.963 29.281 30.99 28.9131 C 31.043 28.0989 30.8032 27.2612 30.4796 26.5225 C 30.3376 26.1958 30.1489 25.8916 29.8887 25.6414 C 29.3369 25.105 28.4064 25.1086 27.7906 25.5547 C 27.5999 25.6921 27.4241 25.9204 27.2657 26.2351 C 27.1052 26.5474 26.9978 26.925 26.9655 27.2705 Z" fill="#2a2d2c"/>
			<path d="M 28.7948 27.7539 C 28.4485 27.6394 28.2217 27.575 28.1218 27.5676 C 28.6138 27.6035 28.8699 27.407 28.9141 26.9846 L 29.0049 26.105 C 29.0317 26.6702 29.0951 27.0313 29.2253 27.2178 C 29.3066 27.3337 29.3789 27.4146 29.4587 27.4502 L 29.7516 27.541 C 29.8706 27.575 29.9878 27.6135 30.0883 27.6135 C 29.5518 27.5676 29.2611 27.7024 29.2163 27.9946 C 29.1414 28.4194 29.0951 28.6963 29.0599 28.8311 C 29.051 28.1748 28.9595 27.8203 28.7948 27.7539 L 28.7948 27.7539 Z" fill="#ffffff"/>
			<path d="M 28.1392 29.0613 L 28.1949 28.5171 C 28.2129 28.8662 28.2507 29.0891 28.323 29.2065 C 28.3678 29.271 28.4229 29.3237 28.4767 29.353 L 28.6495 29.4043 C 28.7233 29.4219 28.7948 29.4492 28.8596 29.4492 C 28.531 29.4219 28.3485 29.502 28.3134 29.6816 C 28.2769 29.9424 28.239 30.1208 28.2217 30.1926 C 28.2217 29.7886 28.166 29.5757 28.0577 29.5386 C 27.8484 29.4673 27.7114 29.4219 27.6475 29.4219 C 27.9484 29.4414 28.113 29.3149 28.1392 29.0613 L 28.1392 29.0613 Z" fill="#ffffff"/>
			<path d="M 8.0215 67.1858 C 7.8838 67.4426 7.7212 67.7422 7.5958 68.043 C 7.4677 68.3413 7.381 68.6443 7.381 68.887 L 7.381 68.8911 C 7.385 69.1235 7.4636 69.272 7.6006 69.4048 C 7.7385 69.5342 7.9507 69.6365 8.1992 69.7083 C 8.7013 69.8494 9.333 69.8643 9.7483 69.8662 C 9.8413 69.8682 9.9349 69.8682 10.0266 69.8682 C 10.8359 69.8682 11.6499 69.8459 12.4662 69.8386 C 14.0406 69.8208 15.6187 69.8027 17.1919 69.7849 C 17.3564 69.7849 17.5204 69.7837 17.6836 69.7837 C 17.8792 69.7837 18.0728 69.7849 18.2649 69.7849 C 18.8441 69.7849 19.42 69.7769 19.9813 69.7231 C 22.2819 69.5063 24.3765 68.3765 25.7325 66.5254 C 25.8352 66.3892 26.1877 65.8374 26.6735 65.0698 C 27.1604 64.3013 27.7878 63.3027 28.4519 62.2358 C 29.7813 60.1055 31.2688 57.7029 32.1257 56.3242 C 32.7773 55.2729 34.803 52.1519 34.8044 52.1499 C 34.8464 52.0862 34.9209 52.0435 35.0012 52.0435 C 35.0798 52.0435 35.1536 52.0862 35.1948 52.1499 C 35.1956 52.1504 37.2261 55.2729 37.8768 56.3242 C 39.1609 58.3943 41.8655 62.759 43.3274 65.0698 C 43.8127 65.8374 44.1661 66.3892 44.2686 66.5254 C 45.6216 68.3765 47.7173 69.5063 50.0193 69.7231 C 50.58 69.7769 51.1571 69.7849 51.7344 69.7849 C 51.928 69.7849 52.1216 69.7837 52.3164 69.7837 C 52.4796 69.7837 52.6434 69.7849 52.8088 69.7849 C 54.3818 69.8027 55.9578 69.8208 57.5352 69.8386 C 58.3508 69.8459 59.1641 69.8682 59.9734 69.8682 C 60.0651 69.8682 60.1587 69.8682 60.2517 69.8662 C 60.5623 69.8643 60.9956 69.8589 61.4053 69.7925 C 61.8167 69.731 62.1941 69.5999 62.3987 69.4048 C 62.5364 69.272 62.6143 69.1235 62.6184 68.8911 L 62.6184 68.884 C 62.6184 68.6416 62.5315 68.3394 62.4067 68.0405 C 62.2808 67.7422 62.1169 67.4426 61.9785 67.189 C 61.8855 67.0176 61.7849 66.8477 61.6836 66.6753 C 59.5897 63.0864 57.5999 59.4585 55.6155 55.8152 C 53.3179 51.6042 51.0278 47.3857 48.7245 43.1782 C 48.6941 43.1226 48.6873 43.0527 48.7113 42.9932 C 48.7319 42.9307 48.7817 42.8818 48.8408 42.8582 C 51.8279 41.6567 54.271 39.1821 56.3009 36.7168 C 59.0553 33.3691 61.3311 29.7026 63.4663 25.9409 C 64.2017 24.6455 64.8574 23.2961 65.5657 21.967 C 64.2122 24.0837 62.2312 26.168 59.6566 28.2153 C 56.2712 30.9001 50.5186 33.5503 42.4573 36.1387 C 34.6816 38.6392 28.9677 41.5393 25.2939 44.874 C 23.554 46.4341 22.3279 47.5156 21.6199 48.0898 C 21.4574 48.2534 20.6825 49.0503 19.3291 50.5259 C 17.6863 52.3438 15.9451 54.5173 14.1274 57.0483 C 13.438 58.0085 12.8518 58.8274 12.3484 59.5342 C 11.0315 61.9263 9.6973 64.3105 8.3162 66.6753 C 8.2158 66.8477 8.1152 67.0176 8.0215 67.1858 L 8.0215 67.1858 Z" fill="#ffffff"/>
			<path d="M 69.1113 16.2583 C 69.0769 16.3706 68.9598 16.5396 68.7979 16.7148 C 68.6382 16.8926 68.4453 17.0757 68.2793 17.2837 L 68.2766 17.2864 C 67.9633 17.6882 67.6394 18.1025 67.3542 18.5571 L 67.3564 18.5544 C 66.9163 19.2437 66.4934 19.948 66.0856 20.6558 C 65.0923 22.3757 64.2673 24.1685 63.3092 25.8547 C 61.176 29.6133 58.9038 33.2717 56.1611 36.6045 C 54.1382 39.0654 51.7122 41.5137 48.772 42.6956 C 48.665 42.7383 48.5803 42.8262 48.5413 42.9336 C 48.502 43.041 48.5116 43.1606 48.5659 43.2617 C 50.8679 47.4705 53.1594 51.6855 55.4579 55.8989 C 57.4421 59.5417 59.4326 63.1699 61.5272 66.7607 L 61.5266 66.7581 C 61.6287 66.9363 61.7285 67.1057 61.8206 67.271 C 61.9592 67.5259 62.1196 67.8193 62.241 68.1082 C 62.3628 68.394 62.4407 68.679 62.4393 68.8828 L 62.4393 68.8911 C 62.4336 69.0801 62.3828 69.1709 62.2781 69.2759 C 62.1204 69.4312 61.7705 69.5598 61.3772 69.6189 C 60.9839 69.6807 60.5603 69.688 60.2511 69.6909 L 59.9431 69.6909 C 59.146 69.6909 58.3438 69.6704 57.5359 69.6628 C 55.9594 69.644 54.3848 69.6235 52.8096 69.6094 C 52.6663 69.6069 52.5251 69.6062 52.3818 69.6062 C 52.1587 69.6062 51.9368 69.6074 51.7151 69.6074 C 51.1448 69.6074 50.5822 69.5999 50.0359 69.5483 C 47.7855 69.335 45.7372 68.23 44.4141 66.4253 C 44.37 66.3647 44.2529 66.1895 44.0925 65.9407 C 42.9602 64.187 39.5293 58.6475 38.0293 56.2327 C 37.3756 55.1777 35.3486 52.0571 35.3477 52.0542 C 35.2727 51.9385 35.1418 51.8679 35.0012 51.8679 C 34.8608 51.8679 34.73 51.9385 34.6543 52.0542 C 34.6521 52.0571 32.6257 55.1777 31.9707 56.2327 C 31.1154 57.6133 29.6262 60.0127 28.2976 62.1436 C 27.6328 63.21 27.0068 64.2075 26.5205 64.9768 C 26.2781 65.3625 26.0687 65.6914 25.9075 65.9407 C 25.7477 66.1895 25.6299 66.3647 25.5858 66.4258 C 24.2646 68.23 22.2158 69.335 19.9641 69.5483 C 19.4187 69.5999 18.8564 69.6074 18.2849 69.6074 C 18.063 69.6074 17.8406 69.6062 17.6182 69.6062 C 17.4756 69.6062 17.3337 69.6069 17.1897 69.6094 C 15.6145 69.6235 14.0393 69.644 12.4641 69.6628 C 11.6567 69.6704 10.8538 69.6909 10.0569 69.6909 L 9.7496 69.6909 C 9.337 69.6885 8.717 69.6724 8.2502 69.5381 C 8.0159 69.4739 7.8301 69.3782 7.7239 69.2759 C 7.6193 69.1709 7.569 69.0815 7.5635 68.8896 L 7.5635 68.8828 C 7.562 68.679 7.6384 68.394 7.7617 68.1074 C 7.8831 67.8186 8.0421 67.5251 8.1792 67.271 C 8.2681 67.1069 8.3707 66.9375 8.4741 66.7581 L 8.4727 66.7607 C 10.5693 63.1699 12.5591 59.5417 14.5454 55.8972 C 16.8412 51.6855 19.1321 47.4705 21.4325 43.2617 C 21.4875 43.1606 21.4966 43.041 21.458 42.9336 C 21.4182 42.8262 21.3341 42.7383 21.2267 42.6956 C 18.2869 41.5137 15.8611 39.0654 13.8375 36.6045 C 11.0983 33.271 8.8232 29.6133 6.6921 25.8555 C 5.7321 24.1685 4.9076 22.3757 3.9158 20.6558 C 3.5079 19.948 3.083 19.2432 2.6449 18.5552 L 2.6462 18.5566 C 2.3606 18.103 2.0388 17.6882 1.7234 17.2856 C 1.5574 17.0757 1.3632 16.8911 1.2019 16.7136 C 1.0415 16.5388 0.9222 16.3706 0.8899 16.2583 C 0.8403 16.1091 0.8225 15.9917 0.8225 15.905 C 0.8252 15.7646 0.8577 15.7031 0.9092 15.6382 C 0.9871 15.5425 1.1868 15.4399 1.4775 15.3843 C 1.7661 15.3262 2.1235 15.3091 2.4741 15.3091 C 2.8013 15.3091 3.1196 15.3228 3.3889 15.3228 L 3.4211 15.3228 C 4.9137 15.3201 6.4036 15.3188 7.8954 15.3159 C 8.939 15.3159 9.9846 15.314 11.0273 15.314 L 11.0389 15.314 C 12.1686 15.3135 13.2878 15.7422 14.3491 16.3706 C 15.4092 16.9976 16.4004 17.8169 17.2689 18.5532 C 18.9358 19.9614 20.3794 21.6851 21.7673 23.4141 C 21.8604 23.5293 22.0083 23.5869 22.1558 23.5625 C 22.3032 23.5396 22.425 23.4399 22.4761 23.3018 C 22.9644 21.98 23.6125 20.6738 24.2869 19.4775 L 24.2944 19.4648 C 25.1333 17.8293 26.8291 16.2451 28.615 15.8887 C 29.0752 15.7939 29.5801 15.7676 30.1022 15.7676 C 30.6104 15.7676 31.1318 15.792 31.6436 15.792 C 31.9336 15.791 32.4045 15.791 32.9019 15.791 C 33.8959 15.791 34.9978 15.792 35.0007 15.792 C 35.0034 15.792 36.1047 15.791 37.0986 15.791 C 37.5959 15.791 38.0658 15.791 38.355 15.792 C 38.8682 15.792 39.3894 15.7676 39.8992 15.7676 C 40.4199 15.7676 40.9268 15.7939 41.384 15.8887 C 43.1703 16.2451 44.8673 17.8293 45.7069 19.4648 L 45.7139 19.4775 C 46.3879 20.6738 47.0342 21.98 47.5238 23.3018 C 47.5748 23.4399 47.6982 23.5396 47.8456 23.5625 C 47.9929 23.5869 48.1404 23.5293 48.234 23.4141 C 49.6211 21.6851 51.0649 19.9609 52.7297 18.5532 C 53.6002 17.8169 54.5913 16.9976 55.6514 16.3706 C 56.7122 15.7422 57.8328 15.3135 58.9615 15.314 L 58.9725 15.314 C 60.0161 15.314 61.0596 15.3159 62.1052 15.3159 C 63.5956 15.3188 65.0884 15.3201 66.5823 15.3228 L 66.6139 15.3228 C 66.8824 15.3228 67.2013 15.3091 67.528 15.3091 C 67.9949 15.3071 68.4777 15.3425 68.7821 15.4536 C 68.9349 15.5078 69.037 15.5742 69.0906 15.6382 C 69.1436 15.7031 69.1747 15.7646 69.1775 15.905 C 69.1775 15.9917 69.1594 16.1104 69.1113 16.2583 ZM 69.7156 15.1113 C 69.4407 14.8015 69.0645 14.6689 68.687 14.5916 C 68.3062 14.5149 67.9048 14.5 67.528 14.5 C 67.1787 14.5 66.8535 14.5142 66.6139 14.5142 L 66.5828 14.5142 C 65.0896 14.5115 63.5972 14.5103 62.1052 14.5076 C 61.0603 14.5076 60.0176 14.5049 58.9725 14.5049 L 58.9749 14.5049 L 58.9615 14.5039 C 57.6187 14.5054 56.3613 15.0063 55.2272 15.6772 C 54.0927 16.3496 53.0706 17.199 52.1946 17.9385 C 50.6384 19.2568 49.2987 20.8086 48.0337 22.3657 C 47.5674 21.2222 47.0112 20.1106 46.4321 19.0845 C 45.4858 17.2761 43.6833 15.5425 41.5524 15.0957 C 41.0066 14.9834 40.4475 14.958 39.8992 14.958 C 39.3647 14.958 38.8406 14.9819 38.3569 14.9819 C 38.0671 14.9812 37.5967 14.9812 37.0986 14.9812 C 36.1041 14.9812 35.0007 14.9819 35.0007 14.9819 C 35.0012 14.9819 33.8965 14.9812 32.9019 14.9812 C 32.4041 14.9812 31.9336 14.9812 31.6416 14.9819 C 31.1587 14.9819 30.6357 14.958 30.1022 14.958 C 29.5532 14.958 28.9946 14.9834 28.4463 15.0967 C 26.311 15.5439 24.5059 17.2837 23.5608 19.0972 L 23.5615 19.0972 C 22.9857 20.1196 22.4307 21.2263 21.9663 22.3657 C 20.7017 20.8086 19.3621 19.2554 17.8062 17.9385 C 16.9307 17.199 15.9086 16.3496 14.7742 15.6772 C 13.6392 15.0063 12.3828 14.5054 11.0389 14.5039 L 11.017 14.5049 C 9.9762 14.5049 8.9341 14.5076 7.8948 14.5076 C 6.4021 14.5103 4.9124 14.5115 3.4191 14.5142 L 3.3889 14.5142 C 3.1478 14.5142 2.822 14.5 2.4741 14.5 C 1.9727 14.5015 1.425 14.5237 0.9417 14.6909 C 0.6992 14.7764 0.467 14.9048 0.2847 15.1113 C 0.1027 15.3159 -0.0033 15.6016 0.0001 15.905 C 0.0001 16.0955 0.0372 16.2949 0.1047 16.5056 C 0.2101 16.8147 0.4043 17.0471 0.5876 17.2539 C 0.7749 17.4578 0.9609 17.6382 1.0718 17.7805 C 1.3853 18.179 1.689 18.5732 1.9465 18.9834 L 1.9473 18.9841 C 2.3792 19.6619 2.7986 20.3567 3.2002 21.0547 C 4.1677 22.7314 4.9916 24.5229 5.9738 26.2505 C 8.116 30.0251 10.4128 33.7251 13.1975 37.1133 C 15.1648 39.499 17.541 41.9268 20.5034 43.2527 C 18.2704 47.3391 16.0457 51.4287 13.8203 55.5156 C 11.8345 59.1587 9.8495 62.7793 7.759 66.3574 L 7.7583 66.3589 C 7.6606 66.5276 7.5544 66.7031 7.4534 66.8923 C 7.3169 67.1445 7.1433 67.459 7.0007 67.7983 C 6.8601 68.1379 6.7418 68.5012 6.7404 68.8828 L 6.7404 68.8997 L 6.741 68.8997 C 6.7397 69.2888 6.9077 69.6353 7.155 69.8613 C 7.5317 70.2078 8.0236 70.3394 8.4927 70.4187 C 8.9631 70.4917 9.4259 70.4976 9.7449 70.4985 C 9.8489 70.4993 9.9542 70.5 10.0569 70.5 C 10.8682 70.5 11.6741 70.4795 12.4729 70.4722 C 14.0503 70.4546 15.6255 70.4331 17.1987 70.4187 C 17.3391 70.4172 17.4769 70.4165 17.6182 70.4165 C 17.8385 70.4165 18.061 70.4172 18.2849 70.4172 C 18.8621 70.4172 19.4524 70.4106 20.0426 70.3545 C 22.5167 70.1204 24.7876 68.8997 26.2532 66.8977 C 26.3242 66.802 26.4371 66.6284 26.6025 66.3745 C 27.7451 64.6047 31.1731 59.0723 32.6733 56.6543 C 32.9944 56.1367 33.6646 55.0942 34.2527 54.1826 C 34.5385 53.7405 34.8022 53.3313 35.0012 53.0249 C 35.1997 53.3313 35.4634 53.7405 35.7493 54.1826 C 36.3374 55.0942 37.0063 56.1367 37.3289 56.6543 C 38.1841 58.0356 39.6719 60.4355 41.0018 62.5679 C 41.6674 63.634 42.2933 64.6333 42.7815 65.4053 C 43.0255 65.7915 43.2356 66.1211 43.3982 66.3745 C 43.5627 66.6284 43.6763 66.8013 43.7461 66.897 C 45.2137 68.8997 47.484 70.1204 49.9567 70.3545 C 50.5483 70.4106 51.1379 70.4172 51.7151 70.4172 C 51.9397 70.4172 52.1614 70.4165 52.3818 70.4165 C 52.5229 70.4165 52.6615 70.4172 52.8005 70.4187 C 54.3738 70.4331 55.9497 70.4546 57.5269 70.4722 C 58.3267 70.4795 59.1318 70.5 59.9431 70.5 C 60.0464 70.5 60.1519 70.4993 60.2551 70.4985 C 60.6821 70.4946 61.3579 70.4897 61.9792 70.3154 C 62.2898 70.2268 62.5962 70.0947 62.845 69.8623 C 63.0963 69.6338 63.2666 69.2842 63.261 68.8911 L 63.261 68.8828 C 63.2603 68.5012 63.1425 68.1379 63.0012 67.7979 C 62.8572 67.4583 62.6836 67.1428 62.5454 66.8896 C 62.4448 66.7043 62.3401 66.5295 62.2417 66.3589 L 62.241 66.3574 C 60.1519 62.7793 58.1667 59.1587 56.1824 55.5156 C 53.9543 51.4287 51.729 47.3391 49.4958 43.2527 C 52.4583 41.9268 54.8345 39.499 56.8008 37.114 C 59.5876 33.7251 61.8833 30.0251 64.0276 26.2505 C 65.0089 24.5229 65.8323 22.7314 66.8005 21.0547 C 67.2036 20.3567 67.6208 19.6619 68.0527 18.9854 L 68.0547 18.9822 C 68.311 18.5742 68.6169 18.179 68.9287 17.7783 L 68.9268 17.7813 C 69.0396 17.6382 69.2263 17.457 69.4124 17.2532 C 69.5963 17.0464 69.7898 16.8147 69.8945 16.5068 C 69.9634 16.2949 69.9999 16.0955 69.9999 15.905 C 70.004 15.6016 69.8979 15.3169 69.7156 15.1113 Z" fill="#2a2d2c"/>
		</g>
	</g>
</svg>