<?xml version="1.0" standalone="no"?>
<!-- Generator: Adobe Fireworks 10, Export SVG Extension by Aaron Beall (http://fireworks.abeall.com) . Version: 0.6.1  -->
<!DOCTYPE svg PUBLIC "-//W3C//DTD SVG 1.1//EN" "http://www.w3.org/Graphics/SVG/1.1/DTD/svg11.dtd">
<svg id="Untitled-Page%201" viewBox="0 0 70 85" style="background-color:#ffffff00" version="1.1"
	xmlns="http://www.w3.org/2000/svg" xmlns:xlink="http://www.w3.org/1999/xlink" xml:space="preserve"
	x="0px" y="0px" width="70px" height="85px"
>
	<g id="Layer%201">
		<g>
			<path d="M 4.9753 42.499 C 4.9753 54.2134 11.881 64.3379 21.8974 69.1345 L 7.5751 30.4541 C 5.9092 34.1348 4.9753 38.208 4.9753 42.499 Z" fill="#21759b"/>
			<path d="M 55.2683 41.0063 C 55.2683 37.3474 53.9348 34.8149 52.7928 32.8442 C 51.2714 30.4053 49.8436 28.3418 49.8436 25.9026 C 49.8436 23.1826 51.9363 20.6499 54.8856 20.6499 C 55.0188 20.6499 55.1451 20.666 55.2745 20.6738 C 49.933 15.8494 42.816 12.9033 34.9996 12.9033 C 24.5098 12.9033 15.2822 18.209 9.9134 26.2429 C 10.6185 26.2651 11.2824 26.2788 11.8458 26.2788 C 14.9856 26.2788 19.8479 25.9026 19.8479 25.9026 C 21.4657 25.8091 21.6567 28.1528 20.0399 28.3418 C 20.0399 28.3418 18.4128 28.5293 16.6039 28.623 L 27.5369 60.6812 L 34.1083 41.2568 L 29.4308 28.623 C 27.8132 28.5293 26.2816 28.3418 26.2816 28.3418 C 24.6632 28.2473 24.8531 25.8091 26.4721 25.9026 C 26.4721 25.9026 31.4294 26.2788 34.3796 26.2788 C 37.519 26.2788 42.3822 25.9026 42.3822 25.9026 C 44.0007 25.8091 44.1915 28.1528 42.5737 28.3418 C 42.5737 28.3418 40.9448 28.5293 39.1375 28.623 L 49.9882 60.437 L 52.9837 50.5737 C 54.2799 46.4785 55.2683 43.5391 55.2683 41.0063 Z" fill="#21759b"/>
			<path d="M 35.5267 45.0879 L 26.5173 70.8906 C 29.2079 71.6709 32.0526 72.0967 34.9996 72.0967 C 38.496 72.0967 41.8493 71.502 44.9701 70.4189 C 44.8904 70.292 44.8158 70.1572 44.7551 70.0112 L 35.5267 45.0879 Z" fill="#21759b"/>
			<path d="M 61.3462 28.3008 C 61.4752 29.2432 61.5481 30.2544 61.5481 31.344 C 61.5481 34.3459 60.9777 37.7222 59.2649 41.9443 L 50.0945 68.0803 C 59.0206 62.9502 65.0236 53.4177 65.0236 42.499 C 65.0236 37.3533 63.6898 32.5159 61.3462 28.3008 Z" fill="#21759b"/>
			<path d="M 34.9996 8 C 15.7004 8 0 23.4761 0 42.499 C 0 61.5234 15.7004 77 34.9996 77 C 54.2985 77 70 61.5234 70 42.499 C 70 23.4761 54.2985 8 34.9996 8 ZM 34.9996 75.4182 C 16.5859 75.4182 1.6051 60.6501 1.6051 42.499 C 1.6051 24.3484 16.5859 9.582 34.9996 9.582 C 53.413 9.582 68.3946 24.3484 68.3946 42.499 C 68.3946 60.6501 53.413 75.4182 34.9996 75.4182 Z" fill="#21759b"/>
		</g>
	</g>
</svg>