<?xml version="1.0" standalone="no"?>
<!-- Generator: Adobe Fireworks 10, Export SVG Extension by Aaron Beall (http://fireworks.abeall.com) . Version: 0.6.1  -->
<!DOCTYPE svg PUBLIC "-//W3C//DTD SVG 1.1//EN" "http://www.w3.org/Graphics/SVG/1.1/DTD/svg11.dtd">
<svg id="Untitled-Page%201" viewBox="0 0 70 85" style="background-color:#ffffff00" version="1.1"
	xmlns="http://www.w3.org/2000/svg" xmlns:xlink="http://www.w3.org/1999/xlink" xml:space="preserve"
	x="0px" y="0px" width="70px" height="85px"
>
	<g id="Layer%201">
		<g>
			<path d="M 51.6783 18.0098 C 47.6517 15.5303 43.8531 14.5532 40.0546 12.0737 C 37.6991 10.4961 34.4325 6.7393 31.6971 3.5083 C 31.1655 8.6929 29.5701 10.7966 27.7473 12.2993 C 23.8723 15.3047 21.4412 16.2065 18.0983 18.0098 C 15.2875 19.4373 0.0166 28.4536 0.0166 47.8389 C 0.0166 67.2241 16.5029 81.5 34.8121 81.5 C 53.1216 81.5 69 68.3511 69 48.4399 C 69 28.5288 54.1096 19.5125 51.6783 18.0098 Z" fill="#0077c0"/>
			<path d="M 45.5077 64.6611 C 46.723 64.6611 48.0144 64.7363 48.9263 65.3372 C 49.838 65.9385 50.3696 67.291 50.6738 68.0425 C 50.9775 68.7935 50.6738 69.2446 50.0659 69.5449 C 49.5338 69.8452 49.4584 69.6953 48.9263 68.7183 C 48.3943 67.7417 47.9387 66.7651 45.2793 66.7651 C 42.6206 66.7651 41.7848 67.6665 40.4932 68.7183 C 39.202 69.7705 38.7457 70.146 38.2899 69.5449 C 37.8345 68.9443 37.9866 68.3425 38.822 67.5913 C 39.6578 66.8403 41.0253 65.6377 42.3164 65.1118 C 43.6082 64.5859 44.2919 64.6611 45.5077 64.6611 L 45.5077 64.6611 Z" fill="#ffffff"/>
			<path d="M 32.8958 73.2266 C 34.4154 74.4287 36.6945 75.4058 41.5569 75.4058 C 46.4193 75.4058 49.838 74.0532 51.3575 72.926 C 52.0411 72.4004 52.3448 72.8511 52.4211 73.1514 C 52.4971 73.4521 52.6487 73.9026 52.1171 74.4287 C 51.7374 74.8047 48.2426 77.209 44.1401 77.585 C 40.0375 77.9602 34.4917 78.1855 31.1489 75.1802 C 30.6172 74.6543 30.7689 73.9026 31.1489 73.6021 C 31.5284 73.3018 31.8326 73.0767 32.2885 73.0767 C 32.7441 73.0767 32.6683 73.0767 32.8958 73.2266 L 32.8958 73.2266 Z" fill="#ffffff"/>
			<path d="M 14.283 67.5166 C 20.0566 67.4409 21.1204 66.4644 26.2107 64.2104 C 53.7125 52.0381 58.8029 40.918 59.7906 38.3633 C 60.7781 35.8086 62.2214 31.6763 60.7018 27.093 C 60.4084 26.208 60.1947 25.4978 60.0403 24.926 C 56.3857 20.8843 52.7573 18.679 51.6613 18.001 C 47.7109 15.5215 43.8361 14.5449 40.0375 12.0654 C 37.682 10.5627 34.4154 6.731 31.6805 3.5 C 31.1489 8.6843 29.6292 10.8633 27.7297 12.291 C 23.8552 15.2964 21.4241 16.198 18.0817 18.001 C 15.2704 19.5039 0 28.4453 0 47.8306 C 0 54.02 1.6807 59.6885 4.5645 64.5374 L 5.3182 64.5107 C 6.9136 65.9385 9.4207 67.5913 14.283 67.5166 Z" fill="#0077c0"/>
			<path d="M 51.6613 18.001 C 47.7109 15.5215 43.8361 14.5449 40.0375 12.0654 C 37.682 10.5627 34.4154 6.731 31.6805 3.5 C 31.1489 8.6843 29.6292 10.8633 27.7297 12.291 C 23.8552 15.2964 21.4241 16.198 18.0817 18.001 C 15.2704 19.5039 0 28.4453 0 47.8306 C 0 54.02 1.6807 59.6885 4.5645 64.5374 C 10.7135 74.8765 22.332 81.4917 34.7954 81.4917 C 53.1049 81.4917 68.9829 68.3425 68.9829 48.4316 C 68.9829 37.4971 64.4926 29.8491 60.0403 24.926 C 56.3857 20.8843 52.7573 18.679 51.6613 18.001 ZM 60.896 26.7969 C 65.8838 32.9644 68.413 40.2437 68.413 48.4316 C 68.413 53.1833 67.4979 57.6719 65.6935 61.7725 C 63.9814 65.6626 61.5164 69.1089 58.3665 72.0164 C 52.1396 77.7632 43.7686 80.9282 34.7954 80.9282 C 30.356 80.9282 25.9998 80.0894 21.8474 78.4358 C 17.7687 76.8105 14.0934 74.4844 10.923 71.521 C 4.2471 65.2798 0.5697 56.8667 0.5697 47.8306 C 0.5697 39.7822 3.2114 32.6309 8.4202 26.5752 C 12.4006 21.949 16.6917 19.3848 18.3524 18.4971 C 19.1582 18.0625 19.915 17.6787 20.6458 17.3074 C 22.9386 16.1436 25.104 15.0447 28.0818 12.7346 C 29.6696 11.541 31.3615 9.6504 32.0817 4.8499 C 34.5912 7.802 37.5035 11.1196 39.7286 12.5391 C 41.704 13.8286 43.7297 14.7319 45.6895 15.6055 C 47.5427 16.4324 49.4597 17.2869 51.3558 18.4771 C 51.3591 18.4795 51.4275 18.521 51.4275 18.521 C 56.9712 21.9448 59.9252 25.5967 60.896 26.7969 Z" fill="#0077c0"/>
			<path d="M 14.9667 59.5518 C 15.0425 53.6909 20.5884 48.2061 27.5781 48.1309 C 36.467 48.0562 42.6206 56.8467 47.103 56.7715 C 50.9012 56.6968 58.1949 49.3333 61.7656 49.3333 C 65.5642 49.3333 66.6279 53.2407 66.6279 55.5693 C 66.6279 57.8989 65.8679 62.1064 64.045 64.7363 C 62.2214 67.3657 61.0818 68.3425 58.955 68.1926 C 56.2194 67.9668 50.7496 59.5518 47.2551 59.4014 C 42.8485 59.251 33.2758 68.4929 25.7548 68.4929 C 21.1965 68.4929 19.8291 67.8169 18.3091 66.8403 C 16.03 65.2617 14.8904 62.8579 14.9667 59.5518 L 14.9667 59.5518 Z" fill="#ffffff"/>
		</g>
	</g>
</svg>