<?xml version="1.0" standalone="no"?>
<!-- Generator: Adobe Fireworks 10, Export SVG Extension by Aaron Beall (http://fireworks.abeall.com) . Version: 0.6.1  -->
<!DOCTYPE svg PUBLIC "-//W3C//DTD SVG 1.1//EN" "http://www.w3.org/Graphics/SVG/1.1/DTD/svg11.dtd">
<svg id="Untitled-Page%201" viewBox="0 0 70 85" style="background-color:#ffffff00" version="1.1"
	xmlns="http://www.w3.org/2000/svg" xmlns:xlink="http://www.w3.org/1999/xlink" xml:space="preserve"
	x="0px" y="0px" width="70px" height="85px"
>
	<g id="Layer%201">
		<g>
			<path d="M 61.3101 18.3818 C 61.2551 17.9844 60.9048 17.7644 60.615 17.7407 C 60.3259 17.7168 54.207 17.2666 54.207 17.2666 C 54.207 17.2666 49.958 13.0803 49.4915 12.6167 C 49.025 12.1538 48.1138 12.2944 47.7604 12.3975 C 47.7073 12.4128 46.8318 12.6812 45.3816 13.126 C 43.9622 9.073 41.4573 5.3477 37.0503 5.3477 C 36.9285 5.3477 36.8036 5.353 36.6774 5.3599 C 35.4241 3.7146 33.8716 3 32.5308 3 C 22.2639 3 17.3599 15.7366 15.8217 22.2092 C 11.8324 23.4358 8.9984 24.3076 8.6362 24.4204 C 6.4092 25.114 6.3394 25.1836 6.0476 27.2659 C 5.8265 28.8418 0 73.5583 0 73.5583 L 45.4004 82 L 70 76.7185 C 70 76.7185 61.365 18.7795 61.3101 18.3818 ZM 42.8724 13.8965 C 41.7327 14.2466 40.4363 14.6445 39.0311 15.0767 C 39.0323 14.8081 39.0337 14.5435 39.0337 14.2549 C 39.0337 11.7354 38.6814 9.7063 38.1156 8.0986 C 40.387 8.3818 41.8994 10.9458 42.8724 13.8965 ZM 35.2991 8.5981 C 35.9305 10.168 36.3408 12.4214 36.3408 15.4614 C 36.3408 15.6169 36.3396 15.7595 36.3383 15.9038 C 33.8397 16.6711 31.125 17.5054 28.4041 18.3413 C 29.9321 12.4902 32.7955 9.6641 35.2991 8.5981 ZM 32.2485 5.7332 C 32.6919 5.7332 33.1377 5.8823 33.5656 6.1743 C 30.275 7.7107 26.7485 11.5806 25.259 19.3081 C 23.082 19.9771 20.9551 20.6309 18.9873 21.2356 C 20.7327 15.3413 24.8744 5.7332 32.2485 5.7332 Z" fill="#94be45"/>
			<path d="M 60.615 17.7407 C 60.3259 17.7168 54.207 17.2666 54.207 17.2666 C 54.207 17.2666 49.958 13.0803 49.4915 12.6167 C 49.3173 12.4443 49.0818 12.356 48.8357 12.3179 L 45.4028 81.9995 L 70 76.7185 C 70 76.7185 61.365 18.7795 61.3101 18.3818 C 61.2551 17.9844 60.9042 17.7644 60.615 17.7407 Z" fill="#5d8d3d"/>
			<path d="M 37.0503 31.2297 L 34.0171 40.1841 C 34.0171 40.1841 31.3591 38.7759 28.1018 38.7759 C 23.3257 38.7759 23.0858 41.7507 23.0858 42.5 C 23.0858 46.5898 33.8271 48.1565 33.8271 57.7354 C 33.8271 65.2715 29.011 70.125 22.5164 70.125 C 14.7225 70.125 10.7375 65.3113 10.7375 65.3113 L 12.8241 58.4692 C 12.8241 58.4692 16.9208 61.9595 20.3779 61.9595 C 22.6362 61.9595 23.5554 60.1946 23.5554 58.9055 C 23.5554 53.5708 14.7426 53.3325 14.7426 44.5669 C 14.7426 37.1895 20.0782 30.0498 30.8496 30.0498 C 35 30.0498 37.0503 31.2297 37.0503 31.2297 Z" fill="#ffffff"/>
		</g>
	</g>
</svg>